<?xml version="1.0" standalone="no"?>
<!DOCTYPE svg PUBLIC "-//W3C//DTD SVG 1.1//EN" "http://www.w3.org/Graphics/SVG/1.1/DTD/svg11.dtd" >
<svg xmlns="http://www.w3.org/2000/svg">
<metadata></metadata>
<defs>
<font id="GearedSlabRegular" horiz-adv-x="915" >
<font-face units-per-em="2048" ascent="1536" descent="-512" />
<missing-glyph horiz-adv-x="512" />
<glyph unicode="&#xfb01;" horiz-adv-x="1077" d="M94 823v99q0 70 21.5 87t78.5 17v266q0 131 103 197q103 65 251 33q27 -7 27 -31v-143q0 -12 -10 -16.5t-17 -2.5q-113 25 -112 -63v-240h104v-94q0 -59 -17.5 -84t-86.5 -25v-590q0 -25 22 -38q47 -35 47 -97v-98h-380v98q0 61 47 97q19 11 22 32v596h-100zM598 0v102 q0 63 47 95q17 13 20 34v549q0 23 -19 35q-48 30 -48 92v117h274q37 0 37 -39v-745q0 -27 20 -41q50 -37 50 -99v-100h-381zM667 1297q0 50 35 86t85 36t86 -35.5t36 -86t-36 -85t-86 -34.5t-85 34.5t-35 84.5z" />
<glyph unicode="&#xfb02;" horiz-adv-x="1075" d="M94 823v99q0 70 21.5 87t78.5 17v266q0 131 103 197q103 65 251 33q27 -7 27 -31v-143q0 -12 -10 -16.5t-17 -2.5q-113 25 -112 -63v-240h104v-94q0 -59 -17.5 -84t-86.5 -25v-590q0 -25 22 -38q47 -35 47 -97v-98h-380v98q0 61 47 97q19 11 22 32v596h-100zM621 0v102 q0 63 47 95q17 13 20 34v1063q-2 25 -22 37q-45 34 -45 92v109h258q51 0 51 -49v-1243q0 -27 18 -41q50 -38 50 -99v-100h-377z" />
<glyph horiz-adv-x="0" />
<glyph horiz-adv-x="2048" />
<glyph unicode="&#xd;" horiz-adv-x="512" />
<glyph unicode=" "  horiz-adv-x="512" />
<glyph unicode="&#x09;" horiz-adv-x="512" />
<glyph unicode="&#xa0;" horiz-adv-x="512" />
<glyph unicode="!" horiz-adv-x="366" d="M84 12v162q0 29 112.5 29t112.5 -27v-160q0 -32 -110 -32q-115 0 -115 28zM90 1503q0 23 9.5 36t39.5 13h109q25 0 39 -8t16 -43l-14 -1104q0 -47 -31 -47h-115q-37 0 -41 43z" />
<glyph unicode="&#x22;" horiz-adv-x="811" d="M119 1516q0 20 33.5 25t80.5 5q125 0 125 -28l-20 -232q0 -31 -105 -31q-51 0 -72.5 5.5t-21.5 21.5v4zM453 1516q0 20 33.5 25t80.5 5q125 0 125 -28l-20 -232q0 -31 -99.5 -31t-99.5 27v4z" />
<glyph unicode="#" horiz-adv-x="1585" d="M88 360v164q0 10 10 11h367q8 0 12 10l35 231q0 10 -10 10h-326q-10 0 -10 11v164q0 12 10 12h348q8 0 13 8l47 311q0 10 12 11h164q12 0 8 -11l-47 -311q0 -8 8 -8h254q10 0 10 8l47 311q4 10 13 11h164q10 0 10 -11l-47 -311q-4 -8 8 -8h299q10 0 10 -12v-164 q0 -10 -10 -11h-322q-10 0 -10 -10l-35 -231q-4 -10 8 -10h279q10 0 10 -11v-164q0 -10 -10 -10h-301q-8 0 -12 -10l-50 -328q0 -10 -12 -10h-164q-12 0 -8 10l49 328q0 10 -8 10h-252q-12 0 -12 -10l-49 -328q-4 -10 -13 -10h-163q-10 0 -11 10l50 328q4 10 -9 10h-344 q-10 0 -10 10zM662 545q0 -10 8 -10h252q12 0 12 10l35 231q4 10 -8 10h-252q-12 0 -13 -10z" />
<glyph unicode="$" horiz-adv-x="819" d="M57 291v194h127q55 0 83 -33.5t28 -80.5v-103q0 -33 29.5 -57.5t83.5 -24.5q53 0 82.5 30t29.5 58v222q0 68 -32.5 111.5t-82 77.5t-107.5 64.5t-108 74.5q-114 102 -114 266l2 151q0 309 330 309q154 0 243.5 -75.5t89.5 -233.5v-192h-120q-51 0 -86 40.5t-35 90.5v63 q0 43 -27 66.5t-68.5 23.5t-63.5 -24.5t-22 -55.5v-180q0 -41 33 -74.5t82 -67.5t106.5 -71t106.5 -84q115 -110 115 -250v-235q0 -151 -102 -233q-93 -74 -252 -74q-245 0 -324 170q-27 59 -27 137zM356 39h111v-129h-111v129zM356 1497v129h111v-129h-111z" />
<glyph unicode="%" horiz-adv-x="1376" d="M98 1128v117h2q6 143 67 220t206 77q139 0 211 -90q61 -78 61 -201v-123q-4 -292 -272 -292q-143 0 -202.5 75.5t-70.5 216.5h-2zM293 1120q0 -80 19.5 -106.5t50 -26.5t45 4t23.5 19q20 32 20 118v119q0 90 -18.5 113.5t-59.5 23.5t-60.5 -23.5t-19.5 -103.5v-137z M336 6l510 1520q0 6 6 6h184q4 0 4 -6l-510 -1520q0 -6 -6 -6h-184q-10 0 -4 6zM731 272v119h2q6 143 67 219t206 76q138 0 210 -89q62 -76 62 -202v-123q-4 -292 -272 -292q-143 0 -203 75.5t-70 216.5h-2zM926 266q0 -82 19.5 -108.5t50 -26.5t45 4t23.5 19q19 33 19 118 v121q0 87 -13 107t-28.5 24t-46 4t-50 -22.5t-19.5 -104.5v-135z" />
<glyph unicode="&#x26;" horiz-adv-x="1052" d="M100 317v236q0 90 17.5 158.5t81.5 95.5q-93 36 -93 256v164q0 151 105 243q101 89 242 89t225 -52q8 -4 14 -14t-14 -31q-117 -123 -132.5 -125t-26.5 3q-18 8 -50 8q-68 0 -103 -48q-16 -22 -16 -63v-199q0 -72 30 -101.5t93 -29.5h117q0 67 48 99q19 14 54 14h137 v-113h84q12 0 18.5 -9t6.5 -15v-166q0 -27 -29 -27h-80v-407q0 -41 16.5 -71t69.5 -24q30 0 35 -8q13 -18 13 -71v-41q0 -59 -39 -70q-155 -34 -250 39q-90 -51 -185.5 -51t-163 22.5t-117.5 65.5q-108 93 -108 243zM344 307q0 -110 125 -110q119 0 119 104l2 43v346h-121 q-125 0 -125 -137v-246z" />
<glyph unicode="'" horiz-adv-x="415" d="M88 1511q0 31 120 31t120 -29l-21 -231q0 -31 -99 -31t-99 27v4z" />
<glyph unicode="(" horiz-adv-x="667" d="M88 -43v1610q0 221 242 221h243q6 0 7 -6v-215q0 -4 -7 -4h-217q-23 0 -22 -29v-1548q0 -23 20 -23h219q6 0 7 -6v-215q0 -6 -7 -6h-243q-106 0 -174 50t-68 171z" />
<glyph unicode=")" horiz-adv-x="667" d="M88 -43q0 4 6 4h217q23 0 23 29v1548q0 23 -21 23h-219q-6 0 -6 6v215q0 6 6 6h244q106 0 174 -50t68 -171v-1610q0 -221 -242 -221h-244q-6 0 -6 6v215z" />
<glyph unicode="*" horiz-adv-x="557" d="M88 1294l45 117q4 4 8 2l68 -27q6 0 6 5l4 71q0 6 6 6l125 -6l6 -6l-4 -65q0 -8 6 -5l74 19q6 0 6 -4l31 -123q0 -6 -4 -6l-72 -19q-4 0 -4 -6l47 -69q4 -8 -2 -9l-104 -69q-4 -2 -8 2l-35 55q-4 4 -8 0l-35 -59q-4 -4 -8 0l-107 65q-6 4 -2 8l47 76q4 4 -2 8l-80 31 q-4 0 -4 8z" />
<glyph unicode="+" horiz-adv-x="778" d="M88 530v172q0 6 4 7h199q6 0 6 6v196q0 6 4 7h174q6 0 6 -7v-196q0 -6 6 -6h197q6 0 6 -7v-172q0 -6 -6 -6h-197q-6 0 -6 -6v-199q0 -4 -6 -4h-174q-4 0 -4 4v199q0 6 -6 6h-199q-4 0 -4 6z" />
<glyph unicode="," horiz-adv-x="346" d="M57 37v164q0 30 116 30t116 -26v-209q0 -68 -15 -95q-21 -37 -86 -102q-18 -16 -24 -13q-36 18 -34 32q1 8 27 33.5t38 55.5t8 51q-9 48 -60 48q-86 0 -86 31z" />
<glyph unicode="-" horiz-adv-x="565" d="M88 530v172q0 6 6 7h377q6 0 6 -7v-172q0 -6 -6 -6h-377q-6 0 -6 6z" />
<glyph unicode="." horiz-adv-x="362" d="M57 29v170q0 32 125 32q49 0 86 -8t37 -20v-170q0 -16 -37 -25.5t-86 -9.5q-125 0 -125 31z" />
<glyph unicode="/" horiz-adv-x="598" d="M57 8l265 1518q2 6 8 6h205q10 0 4 -6l-265 -1518q-6 -6 -8 -6h-205q-4 0 -4 6z" />
<glyph unicode="0" horiz-adv-x="894" d="M98 293v950q0 151 100 233q94 76 248 76q244 0 324 -172q27 -59 27 -137v-950q0 -149 -100 -234q-88 -75 -251 -75q-241 0 -321 172q-27 59 -27 137zM328 317q0 -80 31.5 -108.5t87.5 -28.5t88 32t32 114v893q0 80 -31.5 107.5t-88 27.5t-88 -28t-31.5 -107v-902z" />
<glyph unicode="1" horiz-adv-x="651" d="M78 1323v41q154 9 196 115q4 12 31 34.5t60 22.5h137v-1284q0 -17 24 -41q15 -7 31 -31t16 -61v-119h-383v119q0 35 16.5 55.5t29 32.5t15.5 21.5t5 15.5v905q0 20 -27 20h-44.5t-32.5 2t-44 41t-30 111z" />
<glyph unicode="2" horiz-adv-x="835" d="M59 1108v133q0 151 101 233q95 78 248 78q155 0 256 -78q108 -81 108 -233v-225q0 -159 -150 -282q-44 -36 -90.5 -76t-86 -69.5t-68.5 -58.5q-62 -60 -62 -135v-119q0 -27 19.5 -39t42.5 -12h201q16 0 26 19q34 67 103 67h69v-260q0 -51 -53 -51h-553q-51 0 -83 39 q-26 32 -26 74v290q0 162 175 303q47 39 93 78t81.5 64.5t60.5 48.5q51 47 51 119v237q0 71 -82 91q-20 4 -32 4q-31 0 -57 -18q-50 -34 -50 -77v-254h-129q-61 0 -92 47q-21 33 -21 62z" />
<glyph unicode="3" horiz-adv-x="854" d="M61 303v197h138q61 0 87 -48q15 -25 15 -67v-47l2 -43q0 -105 119 -105q125 0 125 111v246q0 137 -125 137h-133q-29 0 -29 27v166q0 6 4 11t7 9t14 4h133q63 0 93 30t30 101v199q0 70 -53 96q-29 14 -66 14q-68 0 -102 -47q-17 -22 -17 -61h-2v-72q0 -66 -53 -100 q-21 -14 -55 -14h-132v196q4 142 111 229q100 80 250 80q158 0 258 -88q104 -91 104 -243v-164q0 -160 -42 -219q-19 -25 -50 -37q63 -27 81 -95.5t18 -158.5v-236q0 -150 -108 -243q-102 -88 -261 -88q-155 0 -253 84q-104 91 -108 239z" />
<glyph unicode="4" horiz-adv-x="983" d="M100 342v88q0 21 38 128.5t76 217t80 229t78 222t61.5 173t35.5 97.5t31.5 34t50.5 7h156q25 0 40 -8t15 -37v-975q0 -14 11 -14t29.5 -4t35.5 -16q45 -32 45 -93v-104h-109q-12 0 -12 -13v-20q0 -22 20 -38q49 -37 49 -95v-119h-382v119q0 62 47 90q19 14 22 37v26 q0 12 -12 13h-356q-20 0 -35 13t-15 42zM342 514q-4 -10 6 -10h156q14 0 14 12v514q0 10 -3 4q-11 -22 -17 -53z" />
<glyph unicode="5" horiz-adv-x="868" d="M66 315v66l6 131h34q35 0 83.5 -2t71 -17.5t34.5 -34.5q20 -33 20 -67v-67q0 -59 37 -84t66.5 -25t50 4t37.5 17q43 30 43 88l8 391q0 39 -29.5 69.5t-83.5 30.5q-53 0 -86.5 -32.5t-33.5 -67.5v-8q-4 -2 -9 -2h-69l-47 2q-72 0 -101 47q-14 22 -14 59l29 606 q4 47 39.5 80t80.5 33h496q41 0 50 -18.5t9 -59.5v-242h-88q-43 0 -76.5 20.5t-41.5 35.5q-17 30 -50 30h-147q-39 0 -39 -36q0 -7 -14 -238q0 -29 12 -23q51 29 201 29h4q193 0 239 -192q13 -56 13 -119v-404q0 -152 -110 -244q-104 -87 -261 -87q-156 0 -258 87 q-106 91 -106 244z" />
<glyph unicode="6" horiz-adv-x="845" d="M57 315v908q0 151 105 243q100 88 258 88q156 0 256 -88q104 -91 104 -243v-172h-135q-63 0 -88 47q-16 29 -16 61l-2 43v33q0 115 -119 115q-75 0 -106 -52q-13 -24 -13 -63v-334q0 -20 12 -8q81 49 154 49q143 0 232 -86t89 -246v-295q0 -154 -107 -244 q-104 -87 -259 -87q-156 0 -258 87q-107 92 -107 244zM293 350q0 -82 36 -118.5t93 -36.5q129 0 129 145v213q0 80 -36 124t-93 44t-93 -34t-36 -114v-223z" />
<glyph unicode="7" horiz-adv-x="872" d="M70 1284v174q0 41 20.5 59.5t67.5 18.5h598q20 0 34.5 -12.5t14.5 -36.5v-217q0 -31 -14 -45q-134 -191 -183 -417q-44 -200 -57 -556q0 -23 21 -38q49 -36 49 -138v-76h-377v76q0 90 47 133q16 16 20 24l2 58l2 31q30 387 62 526q61 271 184 444q6 10 -1 13.5t-11 3.5 h-209q-23 0 -37 -13.5t-14 -38.5v-86h-111q-61 0 -89 47q-19 32 -19 66z" />
<glyph unicode="8" horiz-adv-x="876" d="M76 319v230q0 166 106 237q8 4 7 17.5t-7 19.5q-96 78 -96 209v197q0 153 100 244q96 88 252 88t252 -88q101 -92 101 -244v-197q0 -127 -101 -209q-6 -6 -6 -18.5t6 -16.5q51 -35 80 -98t29 -141v-230q0 -157 -102 -246q-97 -85 -259 -85q-249 0 -334 190 q-28 62 -28 141zM319 350q0 -158 119 -157q117 0 117 157v166q0 158 -118 158t-118 -158v-166zM322 1065q0 -158 115.5 -158t115.5 158v133q0 152 -115.5 152t-115.5 -152v-133z" />
<glyph unicode="9" horiz-adv-x="831" d="M70 924v297q0 152 97 243q94 88 247 88t248 -88q98 -90 98 -243v-910q0 -158 -95.5 -244.5t-244.5 -86.5t-242.5 79.5t-99.5 227.5v14q-2 4 -2 10v121h133q61 0 89 -58q19 -38 19 -76t25 -76t75 -38t74.5 35t24.5 82v305q0 16 -24 7q-58 -21 -121 -21q-143 0 -222 86 t-79 246zM313 954q0 -82 22.5 -120.5t79 -38.5t79 38.5t22.5 120.5v230q0 82 -22.5 119.5t-78.5 37.5t-79 -37.5t-23 -119.5v-230z" />
<glyph unicode=":" horiz-adv-x="415" d="M88 262v170q0 31 120 31t120 -27v-170q0 -16 -34 -25.5t-85 -9.5q-121 0 -121 31zM88 823v170q0 31 120 31t120 -29v-170q0 -30 -120 -30t-120 28z" />
<glyph unicode=";" horiz-adv-x="415" d="M88 823v170q0 31 120 31t120 -27v-170q0 -34 -120 -34t-120 30zM92 266v164q0 31 107 31q47 0 86 -7.5t39 -19.5v-209q0 -65 -16 -94q-21 -40 -85 -102q-16 -18 -23 -14.5t-21.5 15t-13.5 17.5t26.5 32t38 55.5t9.5 51.5q-7 50 -61 50q-86 0 -86 30z" />
<glyph unicode="&#x3c;" horiz-adv-x="733" d="M88 618l422 424q4 4 8 0l123 -122q6 -6 0 -9l-287 -288q-4 -4 0 -9l287 -286q8 -4 0 -9l-123 -122q-4 -4 -8 0z" />
<glyph unicode="=" horiz-adv-x="780" d="M88 385v174q0 6 6 6h592q6 0 6 -6v-174q0 -4 -6 -4h-592q-6 0 -6 4zM88 668v174q0 4 6 4h592q6 0 6 -4v-174q0 -6 -6 -6h-592q-6 0 -6 6z" />
<glyph unicode="&#x3e;" horiz-adv-x="669" d="M59 319q-4 4 0 9l287 286q4 4 0 9l-287 288q-2 2 0 9l123 122q4 4 8 0l418 -419q2 -2 4 -2v-5l-4 -2l-418 -417q-4 -4 -8 0z" />
<glyph unicode="?" horiz-adv-x="798" d="M59 1141v108q0 156 95.5 229.5t242.5 73.5q243 0 319 -170q25 -57 25 -135v-248q0 -78 -41 -130t-89 -94t-89 -80t-41 -85v-284h-231v327q0 68 39 115t87 87t87 76t39 79v196q0 145 -105 146q-55 0 -79.5 -44t-24.5 -110v-168h-141q-93 0 -93 111zM262 29v155 q0 29 113.5 29t113.5 -27v-153q0 -33 -118 -33q-109 0 -109 29z" />
<glyph unicode="@" horiz-adv-x="1468" d="M57 543q0 357 223 577q212 211 539 211q446 0 570 -297q43 -102 43 -241.5t-27 -230.5t-67 -150.5t-86 -91t-87 -46.5q-52 -20 -113 -20t-114 12.5t-88 59.5q-65 -75 -211 -64q-150 13 -218 112q-72 106 -28.5 286t125.5 254.5t207 78.5q116 5 199 -47q30 52 90 51h155 v-67q0 -58 -45 -90q-18 -10 -20 -29l-86 -328q-4 -27 17.5 -41t65 -14t78.5 33t51 85q21 72 21 214.5t-30.5 215.5t-90.5 119q-112 87 -337 87q-232 0 -404 -185q-78 -84 -123 -197.5t-45 -236.5t31 -206t86 -136q104 -100 295 -100q138 0 258 41q28 8 33 -17q2 -10 7 -40.5 t9 -52.5q6 -30 -19 -41q-111 -50 -256.5 -50t-258.5 32t-190 101q-159 144 -159 449zM587.5 493.5q18.5 -55.5 110.5 -61.5q68 -3 101 25q14 12 18 28l82 297q-27 34 -69 44t-92 2.5t-80.5 -52.5t-59.5 -136t-10.5 -146.5z" />
<glyph unicode="A" horiz-adv-x="1071" d="M57 0v82q0 43 22.5 66.5t36 36t19.5 30.5l115 541q20 100 41.5 197.5t38 174t27 124.5t10.5 51v10q0 16 -9.5 26.5t-20.5 23.5q-30 35 -30 95v74q109 0 177 1h15q58 0 95 -7q41 -8 60.5 -27.5t25.5 -43t17.5 -80t29.5 -143.5t41 -196.5t60.5 -298t107.5 -522.5 q6 -25 27 -39q51 -35 51 -94v-82h-379v74q0 54 16.5 74t24.5 31t8 30q-10 55 -14 92t-8 59q-9 39 -33 39h-189q-18 0 -26 -4t-10.5 -18t-3.5 -41t-5 -57.5t-6 -61.5t5 -42t14 -23q22 -36 22 -78v-74h-373zM438 614q-1 -4 -1 -7q0 -8 4 -11q5 -4 28 -4h143q24 0 24 17 q0 2 -1 5l-49 283q-10 53 -18.5 104.5t-15.5 92.5q-15 88 -15 94h-5z" />
<glyph unicode="B" horiz-adv-x="878" d="M35 0v88q0 74 43 94q27 14 26 47v1076q0 33 -22 43q-47 21 -47 102v82h426q174 0 255 -87t81 -239v-176q0 -137 -64 -196q-12 -10 -12 -23t16 -23q80 -60 80 -223v-233q0 -152 -80 -242t-256 -90h-446zM346 223q0 -30 23 -30h2h110q63 0 81 29.5t18 101.5v296 q0 61 -22.5 77t-55.5 16h-127q-29 0 -29 -29v-461zM346 918q0 -23 23 -23h92q63 0 79.5 36t16.5 107v172q0 72 -16.5 97.5t-79.5 25.5h-92q-23 0 -23 -24v-391z" />
<glyph unicode="C" horiz-adv-x="860" d="M61 313v910q0 150 110 242q104 87 261 87q155 0 259 -87q108 -91 108 -242v-174h-123q-51 0 -87 31.5t-36 80.5v78q0 39 -36 77t-92 38t-90 -38t-34 -77v-956q0 -33 37 -68t80 -35t66.5 10.5t41.5 26.5q35 32 35 72v82q0 47 27.5 81.5t81.5 34.5h129v-174 q0 -151 -108 -242q-104 -87 -259 -87q-157 0 -261 87q-110 92 -110 242z" />
<glyph unicode="D" horiz-adv-x="884" d="M35 0v82q0 81 45 102q25 10 24 43v1076q0 33 -26 47q-43 23 -43 94v88h452q176 0 256 -90t80 -242v-868q0 -152 -79.5 -242t-256.5 -90h-452zM346 223q0 -28 27 -28h2h112q86 0 96 81q3 23 3 48v880q0 64 -14 86q-25 43 -85 43h-112q-29 0 -29 -30v-1080z" />
<glyph unicode="E" horiz-adv-x="829" d="M35 0v82q0 82 43 102q26 10 26 43v1076q0 33 -23 45q-46 24 -46 96v88h667q23 0 44.5 -17.5t21.5 -33.5v-232h-82q-70 0 -102 60q-10 25 -43 24h-170q-10 0 -18.5 -9t-8.5 -19v-387q0 -29 29 -29h237q10 0 21.5 -7.5t11.5 -23.5v-143q0 -29 -31 -29h-239q-29 0 -29 -29 v-434q0 -14 10.5 -22t20.5 -8h178q20 0 27 24q10 45 39.5 61.5t76.5 16.5h72v-244q0 -23 -15.5 -37t-37.5 -14h-680z" />
<glyph unicode="F" horiz-adv-x="813" d="M35 0v88q0 55 49 92q20 20 20 45v1082q0 29 -22 41q-47 26 -47 102v82h659q16 0 35 -16.5t19 -42.5v-224h-82q-69 0 -101 60q-16 26 -47 26h-143q-14 0 -22.5 -9t-8.5 -21v-385q0 -18 7 -24.5t24 -6.5h219q29 0 29 -45v-127q0 -12 -8.5 -21.5t-18.5 -9.5h-223 q-10 0 -19.5 -7t-9.5 -22v-434q0 -28 18 -41q52 -38 52 -94v-88h-379z" />
<glyph unicode="G" horiz-adv-x="882" d="M61 315v910q0 151 108 242q104 87 259 87q156 0 262 -87q111 -91 111 -242v-160h-139q-35 0 -72 25.5t-37 85.5v24q0 80 -34 118t-91 38t-92 -38t-35 -118v-860q0 -80 35 -117t91 -37t95 37t39 117v225q0 41 -31 48t-42 30t-11 80v78h260q31 0 47.5 -23.5t16.5 -52.5 v-702q0 -23 -23 -23h-51q-15 0 -27.5 24.5t-29.5 24.5t-46 -17q-80 -46 -170 -46t-157.5 22.5t-119.5 64.5q-116 94 -116 242z" />
<glyph unicode="H" horiz-adv-x="952" d="M35 0v88q0 55 49 92q20 16 20 43v1084q0 27 -20 45q-47 31 -49 90v90h379v-90q0 -59 -49 -90q-18 -18 -21 -39v-385q0 -16 10.5 -23.5t20.5 -7.5h203q28 0 28 31v379q0 27 -20 45q-45 33 -49 90v90h381v-90q0 -53 -48 -90q-19 -14 -22 -31v-1096q0 -27 19 -42 q51 -40 51 -95v-88h-381v88q0 57 49 92q20 16 20 39v451q0 29 -31 28h-200q-12 0 -21.5 -8t-9.5 -20v-447q0 -24 18 -40q52 -42 52 -95v-88h-379z" />
<glyph unicode="I" horiz-adv-x="450" d="M35 0v86q0 55 49 92q17 17 20 41v1088q0 23 -20 45q-49 37 -49 92v88h381v-88q0 -55 -49 -92q-21 -17 -21 -45v-1084q0 -30 18 -43q52 -38 52 -94v-86h-381z" />
<glyph unicode="J" horiz-adv-x="860" d="M35 291v223h125q63 0 94 -41q20 -27 20 -70v-100q0 -55 39 -89t86 -34t86 36t39 87v1026q0 24 -19 38q-50 39 -50 95v70h370v-70q0 -68 -37 -90q-24 -19 -24 -43v-1038q0 -151 -110 -233q-98 -74 -261 -74q-250 0 -331 170q-27 59 -27 137z" />
<glyph unicode="K" horiz-adv-x="978" d="M57 0v88q0 55 49 92q21 17 21 45v1084q0 32 -21 43q-49 37 -49 92v88h373v-88q0 -55 -49 -92q-21 -16 -21 -43v-334l265 483q44 74 129 74h149v-117q0 -45 -13 -60.5t-37 -21.5t-38 -17t-27.5 -30.5t-24.5 -40t-26.5 -50.5t-35 -66.5t-51 -101t-89.5 -175.5 q-5 -12 -5 -26q0 -21 12 -44q18 -39 38 -78q30 -63 90 -190q123 -264 148 -302q5 -7 28 -16q50 -20 50 -104v-92h-168q-51 0 -71.5 23.5t-37.5 56.5l-252 547l-33 -52v-350q0 -24 21 -45q49 -37 49 -92v-88h-373z" />
<glyph unicode="L" horiz-adv-x="821" d="M35 0v86q0 81 45 102q26 10 26 39v1084q0 26 -18 39q-51 39 -51 94v88h379v-88q0 -55 -49 -92q-21 -13 -21 -43v-1090q0 -29 29 -29h162q29 0 41 24q42 81 106 81h92v-242q0 -25 -16.5 -39t-32.5 -14h-692z" />
<glyph unicode="M" horiz-adv-x="1361" d="M35 0v88q0 55 49 92q17 13 20 39v1112q-20 4 -34 19q-35 25 -35 90v92h278q29 0 43 -31l324 -713l317 713q14 31 70 31h260v-92q0 -63 -35 -90q-16 -14 -35 -19v-1108q0 -27 19 -41q51 -39 51 -94v-88h-379v88q0 55 49 92q21 13 21 43v772q0 10 -6 -2 q-63 -137 -100.5 -216t-59 -125t-38.5 -84t-29.5 -64.5t-16.5 -36.5t-30.5 -17.5t-56.5 -7.5q-77 0 -89 27q-4 6 -15.5 31.5t-30.5 62.5q-50 100 -91 191.5t-73 160t-35 68.5t-3 -10v-748q0 -26 18 -42q52 -42 52 -95v-88h-379z" />
<glyph unicode="N" horiz-adv-x="940" d="M35 0v86q0 56 51 96q18 18 18 41v1102q-38 11 -58 55q-11 23 -11 58v94h178q25 0 53.5 -11.5t44.5 -58.5q10 -19 56.5 -140.5t82 -213.5t68.5 -177q74 -189 90 -245q2 -6 4 -1t2 11v613q0 25 -20 45q-49 37 -49 92v86h360v-86q0 -29 -4 -53.5t-19.5 -37.5t-20.5 -20.5 t-5 -25.5v-1262q0 -47 -43 -47h-119q-29 0 -44 24.5t-23 47t-31 80t-52.5 136.5t-64.5 168t-63.5 164.5t-48 126t-19.5 53.5t-2 4t-2 -9v-572q0 -26 18 -42q52 -42 52 -95v-86h-379z" />
<glyph unicode="O" horiz-adv-x="862" d="M61 293v950q0 150 110 233q102 76 259 76q159 0 261 -76q110 -83 110 -233v-950q0 -148 -110 -234q-96 -75 -261 -75q-251 0 -339 172q-30 59 -30 137zM301 317q0 -137 129 -137q57 0 94 32t37 114v893q0 80 -37 107.5t-93 27.5t-93 -28t-37 -107v-902z" />
<glyph unicode="P" horiz-adv-x="847" d="M35 0v88q0 55 49 92q17 13 20 33v1108q0 24 -17 33q-38 22 -38 100v78h496q139 0 211 -119q57 -96 57 -215v-262q0 -154 -84 -240t-260 -86h-96q-29 0 -29 -26v-361q0 -29 18 -42q52 -36 52 -93v-88h-379zM344 836q0 -29 27 -29h86q116 0 116 158v211q0 157 -116 157h-80 q-33 0 -33 -35v-462z" />
<glyph unicode="Q" horiz-adv-x="876" d="M61 295v952q0 151 108 233q97 74 261 74q254 0 341 -170q30 -59 30 -137v-952q0 -130 -92 -213q-19 -19 -2 -25q6 -4 27.5 -10t33.5 -11t29.5 -18.5t17.5 -56.5v-123q-113 0 -235 50q-94 38 -129 79q-21 21 -71 21t-108.5 18.5t-105.5 57.5q-105 86 -105 231zM301 301 q0 -47 36 -82t92 -35t94 35t38 82v956q0 31 -38 63t-94 32t-92 -30t-36 -67v-954z" />
<glyph unicode="R" horiz-adv-x="907" d="M35 0v88q0 55 49 92q20 15 20 41v1112q0 10 -13 17.5t-32.5 30t-19.5 63.5v88h432q151 0 245 -96q91 -93 91 -246v-189q0 -143 -78 -208q-25 -20 2 -41q47 -35 61.5 -96.5t14.5 -137.5v-280q0 -29 20 -41q45 -27 45 -86v-111h-198q-53 0 -80 33t-27 78v454q0 59 -23.5 88 t-86.5 29h-86q-27 0 -27 -29v-430q0 -32 21 -43q49 -37 49 -92v-88h-379zM344 901q0 -29 23 -29h104q63 0 82.5 34t19.5 95v203q0 63 -35.5 96t-86.5 33h-82q-25 0 -25 -28v-404z" />
<glyph unicode="S" horiz-adv-x="868" d="M61 291v194h127q55 0 83 -33.5t28 -80.5v-103q0 -33 40 -57.5t80 -24.5t64.5 8.5t42.5 21.5q39 27 39 58v222q0 68 -35.5 111.5t-90 77.5t-117 64.5t-116.5 74.5q-126 103 -126 266l2 151q0 156 100 237q89 72 250 72q155 0 253 -76q101 -79 101 -233v-192h-120 q-51 0 -86 40.5t-35 90.5v63q0 43 -37 66.5t-79 23.5t-73.5 -24.5t-31.5 -55.5v-180q0 -41 35.5 -74.5t89 -67.5t117 -71t116.5 -84q125 -111 125 -250v-235q0 -149 -113 -233q-99 -74 -262 -74q-254 0 -341 170q-30 59 -30 137z" />
<glyph unicode="T" horiz-adv-x="899" d="M35 1245v193q0 47 15.5 70.5t68.5 23.5h653q49 0 70.5 -20.5t21.5 -73.5v-191h-90q-59 0 -88 58q-14 28 -49 28h-39q-12 0 -21.5 -9t-9.5 -26v-1075q3 -31 21 -43q49 -33 49 -92v-88h-377v88q0 55 49 92q21 13 21 43v1080q0 30 -31 30h-35q-8 0 -25.5 -7t-27.5 -29.5 t-21.5 -37t-62.5 -14.5h-92z" />
<glyph unicode="U" horiz-adv-x="927" d="M35 1475v57h375v-47q0 -35 -15.5 -63.5t-28.5 -39.5q-21 -18 -24 -45v-1009q0 -78 38 -111t94 -33t94 34t38 110v1007q0 30 -20 44q-49 36 -49 108v45h356v-47q0 -75 -37 -105q-17 -17 -20 -43v-1042q0 -152 -105 -233q-97 -74 -256 -74q-254 0 -341 170q-30 59 -30 137 v1040q0 28 -18 41q-51 35 -51 99z" />
<glyph unicode="V" horiz-adv-x="1005" d="M37 1446v88h373v-88q0 -65 -43 -92q-18 -10 -11 -43l144 -1075l155 1075q0 33 -18 43q-45 28 -45 92v88h377v-88q0 -57 -47 -92q-21 -13 -29 -43q-63 -350 -99.5 -549t-55.5 -312.5t-36 -202.5q-36 -197 -36 -200q-10 -18 -19.5 -31.5t-28.5 -13.5h-239q-20 0 -30.5 12.5 t-20.5 44.5l-213 1252q-6 31 -27 41q-51 26 -51 94z" />
<glyph unicode="W" horiz-adv-x="1638" d="M37 1444v88h377v-88q0 -64 -45 -92q-18 -10 -19 -43l113 -1076q62 352 115 643t68.5 379t25.5 145.5t12 65.5q4 31 40 47.5t71.5 16.5t59.5 -1t45 -7q43 -13 54 -58q2 -10 12.5 -67.5t28 -145.5t38 -197.5t57 -298t100.5 -522.5l98 1076q0 33 -18 43q-45 28 -45 92v88 h377v-88q0 -58 -48 -92q-20 -12 -28 -43l-111 -1243q-8 -66 -74 -66h-294q-20 0 -31.5 12.5t-20.5 44.5l-174 906l-164 -906q-6 -35 -17 -46t-32 -11h-270q-33 0 -58.5 23.5t-29.5 62.5l-137 1223q-8 30 -29 43q-47 35 -47 92z" />
<glyph unicode="X" horiz-adv-x="958" d="M35 1438v94h194q47 0 70 -29.5t37 -77.5l65 -204q32 -104 43 -137t21 -66q0 -23 12 -25q6 0 9 9.5t6 17.5l122 297q5 20 -11 33q-46 41 -46 94v88h348v-88q0 -66 -45 -92q-17 -11 -29 -41l-9 -23q-34 -86 -56 -136q-39 -93 -92 -227q-54 -135 -56 -155q0 -13 5 -18 l206 -523q11 -29 43 -39q23 -10 37.5 -29.5t14.5 -66.5v-94h-179q-51 0 -72.5 31.5t-34.5 63.5t-23.5 62.5t-27 76t-34.5 96.5t-33.5 95t-26 73.5t-10.5 33.5t-3 15.5t-5 11.5q-10 0 -10 -27q-27 -90 -42 -138q-16 -51 -30 -103t-18 -66q-8 -27 11 -42q50 -40 50 -95v-88 h-383v88q0 60 51 92q15 10 27 37l193 520l4 29l-2 16v13l-187 503q-8 32 -39 43q-23 10 -44 30t-21 67z" />
<glyph unicode="Y" horiz-adv-x="909" d="M35 1444v88h352v-96q0 -66 -31 -84q-10 -6 -20 -14.5t-6 -26.5l116 -457h5q35 123 59 215q63 233 67.5 246.5t-9 22t-26.5 16.5q-20 12 -20 90v88h352v-88q0 -56 -45 -92q-31 -15 -36 -37q-2 -4 -12.5 -37t-26.5 -83q-48 -143 -87.5 -270t-99.5 -319v-391q3 -23 20 -36 q50 -38 50 -93v-86h-369v86q0 57 47 92q23 18 23 45v383l-115 352q-23 66 -43 129.5t-36.5 114.5t-27 83t-12.5 39q-4 15 -22 27q-47 33 -47 93z" />
<glyph unicode="Z" horiz-adv-x="776" d="M35 51v170q0 23 8 39q123 283 192.5 441.5t109.5 250.5t72 166t51 120t22 54q10 27 -25 27h-172q-18 0 -23.5 -6t-5.5 -23v-69h-108q-53 0 -83 31.5t-30 78.5v154q0 47 47 47h584q57 0 57 -53v-166q0 -33 -8 -41q-121 -281 -189.5 -440.5t-108.5 -251t-70.5 -164 t-51 -118.5t-22.5 -53t2 -22.5t20 -15.5h217q0 43 30 73.5t79 30.5h112v-262q0 -49 -47 -49h-606q-25 0 -39 15.5t-14 35.5z" />
<glyph unicode="[" horiz-adv-x="661" d="M84 -254v2040q0 6 6 6h479q6 0 6 -6v-215q0 -4 -6 -4h-233q-6 0 -6 -6v-1590q0 -4 6 -4h233q6 0 6 -6v-215q0 -6 -6 -6h-479q-6 0 -6 6z" />
<glyph unicode="\" horiz-adv-x="608" d="M59 1522q-6 6 4 6h226q4 0 8 -6l254 -1518q0 -6 -4 -6h-211q-2 0 -8 6z" />
<glyph unicode="]" horiz-adv-x="669" d="M88 -35q0 4 6 4h234q6 0 6 6l2 1588q0 4 -6 4h-234q-6 0 -6 6v213q0 6 6 6h479q6 0 7 -6v-2038q0 -6 -7 -6h-479q-6 0 -6 6z" />
<glyph unicode="^" horiz-adv-x="645" d="M90 1292q-4 0 0 4l232 232h4l231 -232v-4l-68 -69h-6l-157 159q-2 2 -4 0l-158 -159h-6z" />
<glyph unicode="_" horiz-adv-x="1046" d="M88 6v154q0 6 6 6h858q6 0 6 -6v-154q0 -6 -6 -6h-858q-6 0 -6 6z" />
<glyph unicode="`" horiz-adv-x="493" d="M88 1311q-6 6 0 6l76 98q-2 2 6 2l227 -209q2 2 2 0t-2 -4l-41 -61h-6z" />
<glyph unicode="a" horiz-adv-x="841" d="M61 317v17q0 139 116 219q48 33 100.5 51.5t92.5 33.5q44 16 107 56q16 12 25 25v51q0 70 -101 70q-57 0 -91 -35q-10 -11 -10.5 -31.5t-21 -42.5t-75.5 -22h-125v53q0 190 178 250q61 20 150 20q178 0 258.5 -72.5t80.5 -197.5v-504q0 -39 13.5 -48t31 -39t17.5 -69 v-100h-201q-25 0 -40 18.5t-19 34.5q-35 -63 -164 -63q-322 0 -322 325zM301 283q0 -117 105 -117q44 0 96 31v327l-29 -14q-12 -6 -28.5 -14.5t-45 -20.5t-63.5 -43t-35 -100v-49z" />
<glyph unicode="b" horiz-adv-x="858" d="M35 0v106q0 68 47 97q22 13 22 43v1042q0 29 -24 43q-45 34 -45 92v109h260q37 0 44 -16.5t7 -79.5v-459q68 53 150 53q135 0 218 -88t83 -246v-372q0 -158 -81 -246t-235 -88q-112 0 -176 49q-13 -39 -65 -39h-205zM346 229q31 -39 80 -39q127 0 127 113v399 q0 68 -33 94q-31 25 -71 25h-6q-63 -3 -97 -49v-543z" />
<glyph unicode="c" horiz-adv-x="800" d="M61 317v385q0 158 95.5 244t246.5 86q146 0 243 -90q93 -87 93 -201v-106h-133q-55 0 -82.5 31.5t-27.5 75.5t-33 61.5t-52.5 17.5t-37 -4t-32.5 -13q-36 -22 -36 -65v-438q0 -100 98 -100q31 0 65 17.5t34 53.5v19q0 47 27.5 81t82.5 34h127v-119q0 -134 -94 -215 q-95 -82 -244.5 -82t-244.5 85t-95 242z" />
<glyph unicode="d" horiz-adv-x="854" d="M61 328v372q0 158 73 247q71 87 219 87h7q68 0 102 -14t48 -27v295q0 29 -20 42q-50 34 -50 93v109h236q39 0 56.5 -16.5t17.5 -79.5v-1186q0 -30 19 -41q50 -31 50 -98v-111h-201q-52 0 -65 41q-64 -49 -198 -49t-214 89t-80 247zM301 295q0 -93 97 -103q10 -1 19 -1 q26 0 42 9q37 19 51 33v539q-26 46 -76 54q-14 2 -26 2q-35 0 -65 -15q-42 -20 -42 -78v-440z" />
<glyph unicode="e" horiz-adv-x="819" d="M61 322v385q0 151 100 242q93 85 251 85q154 0 248 -85q98 -88 98 -242v-134q0 -102 -105 -102h-350v-186q0 -41 31 -64.5t78 -23.5t77.5 24.5t30.5 42.5v25q0 47 24.5 80.5t80.5 33.5h133v-135q0 -131 -100 -204q-96 -72 -246 -72q-156 0 -251 87q-100 91 -100 243z M303 633h211v82q0 63 -42 95q-27 21 -64 21q-61 0 -92 -57q-13 -22 -13 -59v-82z" />
<glyph unicode="f" horiz-adv-x="550" d="M35 823v99q0 70 21.5 87t78.5 17v266q0 131 103 197q69 44 158 44q44 0 93 -11q27 -7 27 -31v-143q0 -12 -10 -16.5t-17 -2.5q-25 6 -44 6q-69 0 -68 -69v-240h104v-94q0 -59 -17.5 -84t-86.5 -25v-590q0 -25 22 -38q47 -35 47 -97v-98h-380v98q0 61 47 97q19 11 22 32 v596h-100z" />
<glyph unicode="g" horiz-adv-x="854" d="M61 332v370q0 158 78 244t232 86q78 0 124 -21.5t56 -31.5q7 45 45 45h223v-104q0 -63 -47 -95q-22 -18 -22 -43v-983q0 -158 -90.5 -242.5t-241.5 -84.5q-143 0 -241 89q-93 85 -93 199v119h178q25 0 44.5 -19.5t19.5 -54.5v-4q0 -49 17 -88t73.5 -39t75 38t18.5 120 v215q-4 -8 -35 -28.5t-101 -27.5q-17 -2 -33 -2q-52 0 -99 17q-60 23 -100 69q-81 93 -81 257zM305 307q0 -64 47 -92q32 -18 68 -18h10q54 5 80 41v534q-6 12 -19 29t-63 27q-11 2 -22 2q-36 0 -64 -24q-37 -30 -37 -81v-418z" />
<glyph unicode="h" horiz-adv-x="919" d="M35 0v102q0 59 47 97q22 13 22 43v1046q0 29 -19 42q-50 34 -50 93v109h270q43 0 43 -49v-494q55 39 160 39q158 0 229.5 -86t71.5 -244v-460q2 -18 17.5 -26.5t25.5 -14.5q33 -23 33 -97v-100h-228q-88 0 -88 127v559q0 75 -53 104q-31 18 -64 18q-12 0 -24 -2 q-46 -8 -63 -25t-17 -15v-526q0 -32 18 -42q50 -29 50 -98l-2 -100h-379z" />
<glyph unicode="i" horiz-adv-x="450" d="M35 0v102q0 63 47 95q17 13 20 34v549q0 23 -19 35q-48 30 -48 92v117h274q37 0 37 -39v-745q0 -27 20 -41q50 -37 50 -99v-100h-381zM104 1297q0 50 35 86t85 36t86 -35.5t36 -86t-36 -85t-86 -34.5t-85 34.5t-35 84.5z" />
<glyph unicode="j" horiz-adv-x="419" d="M35 913v111h268q25 0 35 -9t10 -38v-1194q0 -145 -77.5 -228t-209.5 -98h-3q-5 0 -12 5q-9 8 -9 18v153q0 17 20 37q47 31 47 117v999q-3 23 -21 35q-48 33 -48 92zM94 1297q0 50 35 86t85 36t86 -35.5t36 -86t-36 -85t-86 -34.5t-85 34.5t-35 84.5z" />
<glyph unicode="k" horiz-adv-x="907" d="M35 1421v111h260q25 0 38 -9.5t13 -37.5v-764q2 0 70.5 90t124.5 162q25 23 42 37t44 14h178v-117q0 -47 -31 -70.5t-50 -29.5t-19 -8t-17 -19l-131 -168q31 -70 62 -132t60.5 -122.5t49.5 -96.5t44 -45t48.5 -35.5t24.5 -71.5v-109h-174q-51 0 -72.5 21.5t-33 46 t-19.5 39t-19.5 38t-26 52t-39 79t-67.5 138.5l-49 -68v-106q0 -28 20 -42q42 -29 42 -98v-100h-367v102q0 67 41 95q22 18 22 45v1044q0 26 -20 40q-49 36 -49 95z" />
<glyph unicode="l" horiz-adv-x="446" d="M35 0v102q0 63 47 95q17 13 20 34v1063q-2 25 -22 37q-45 34 -45 92v109h258q51 0 51 -49v-1243q0 -27 18 -41q50 -38 50 -99v-100h-377z" />
<glyph unicode="m" horiz-adv-x="1411" d="M35 0v102q0 70 45 99q10 8 19.5 13t9.5 34v508q0 51 -27 67q-39 31 -39 45v156h240q39 0 47 -35q72 43 186 43q162 0 234 -88q134 88 284 88q231 0 270 -204q13 -64 13 -142v-448q3 -30 21 -40q38 -24 38 -98v-100h-194q-106 0 -107 117v588q0 59 -49 91q-35 22 -70 22 l-14 -1q-63 -6 -88 -26q-14 -8 -23 -21v-532q0 -25 21 -41q35 -25 35 -97v-100h-211q-33 0 -56.5 33t-23.5 76v585q0 59 -42 91t-84 32q-62 0 -93 -26q-16 -10 -27 -25v-526q0 -30 23 -43q45 -32 45 -97v-100h-383z" />
<glyph unicode="n" horiz-adv-x="946" d="M53 0v96q0 65 47 94q10 8 15.5 14.5t7.5 26.5v517q0 61 -25 75q-45 34 -45 92v109h273q30 0 41 -43q84 51 174 51t143 -25.5t87 -71.5q65 -88 65 -255v-449q0 -28 22 -41q35 -30 35 -96v-94h-203q-43 0 -70.5 42t-27.5 95v535q0 72 -24.5 110.5t-96 38.5t-104.5 -49v-539 q0 -28 19 -41q50 -36 50 -98l-2 -94h-381z" />
<glyph unicode="o" horiz-adv-x="825" d="M61 299v426q0 152 101 233q93 74 249 74q75 0 139 -24.5t112 -64.5q102 -84 102 -200v-454q0 -133 -102 -215q-101 -82 -250 -82q-245 0 -324 170q-27 59 -27 137zM303 291q0 -27 27 -61.5t82 -34.5t82.5 31.5t27.5 66.5v432q0 35 -26.5 69.5t-82.5 34.5t-83 -30.5 t-27 -65.5v-442z" />
<glyph unicode="p" horiz-adv-x="866" d="M35 -410q0 59 45 93q24 14 24 43v1052q0 32 -22 45q-47 35 -47 97v104h276q39 0 39 -39q10 10 49 28.5t117 18.5q154 0 221.5 -83t67.5 -240v-387q0 -158 -78 -248q-72 -83 -219 -83q-13 0 -27 1q-81 5 -131 28v-301q0 -24 23 -43q47 -29 47 -96v-98h-385v108zM350 240 q25 -42 84 -42q15 0 32 3q95 15 95 123v397q0 61 -43 85q-35 19 -68 19q-7 0 -14 -1q-74 -9 -86 -50v-534z" />
<glyph unicode="q" horiz-adv-x="856" d="M61 317v410q0 158 77 230.5t199.5 72.5t170.5 -45q0 10 6 19q8 20 33 20h274v-104q0 -61 -47 -97q-22 -13 -22 -43v-1056q0 -29 19 -42q50 -34 50 -94v-108h-383v98q0 65 49 96q21 17 21 43v303q-55 -24 -134 -28q-12 -1 -24 -1q-64 0 -116 19q-60 21 -99 63 q-74 80 -74 244zM299 305q0 -61 47 -90q31 -20 64 -20q9 0 18 2q53 10 80 43v524q-8 14 -23.5 33t-66.5 27q-10 2 -19 2q-38 0 -66 -30q-34 -36 -34 -98v-393z" />
<glyph unicode="r" horiz-adv-x="684" d="M35 0v102q0 63 47 95q22 18 22 47v544q0 18 -19 32q-50 35 -50 93v111h262q51 0 51 -45v-39q92 72 158 84q36 6 62 6q43 0 60 -16q9 -8 9 -41v-117q0 -29 -16.5 -36t-44.5 -6h-7q-26 0 -61 -6q-41 -7 -77 -26q-79 -43 -83 -131v-411q0 -30 18 -42q50 -34 50 -98l-2 -100 h-379z" />
<glyph unicode="s" horiz-adv-x="808" d="M61 279v118h109q57 0 89 -29.5t32 -86.5v-2q0 -33 28.5 -61t75.5 -28t78 21.5t31 67.5v24q0 37 -32 64.5t-78 53t-101 52.5t-101 61q-110 82 -110 193v64q0 103 90 171q89 68 242 68q141 0 234 -86q85 -79 85 -196v-99h-98q-63 0 -100 24.5t-37 71.5t-33 68t-70 21 t-60.5 -19.5t-23.5 -54.5v-2q0 -33 33 -57.5t81 -49t104.5 -52.5t104.5 -63q114 -85 114 -196v-61q0 -138 -97 -215q-89 -70 -239 -70q-153 0 -250 76q-101 78 -101 209z" />
<glyph unicode="t" horiz-adv-x="548" d="M35 821v90q0 66 21.5 90.5t80.5 24.5v207q0 135 58.5 185t185.5 50v-442h104v-70q0 -84 -17 -104q-25 -31 -87 -31v-534q1 -41 17 -71q14 -25 52 -24q8 0 17 1q29 0 35 -9q12 -16 12 -71v-41q0 -59 -39 -70q-48 -10 -90 -10q-95 0 -162 51q-86 66 -86 176v602h-102z" />
<glyph unicode="u" horiz-adv-x="901" d="M35 913v111h233q66 0 66 -76v-643q0 -70 62 -105q22 -12 62.5 -12t106.5 31v561q0 24 -29.5 46t-29.5 87v111h235q35 0 51.5 -22.5t16.5 -37.5v-203l-2 -337v-186q3 -30 21 -40q38 -24 38 -98v-100h-164q-35 0 -48 11.5t-23 31.5q-49 -49 -180 -49q-245 0 -329 175 q-28 58 -28 136v475q0 25 -19 39q-40 29 -40 94z" />
<glyph unicode="v" horiz-adv-x="821" d="M35 913v111h209q33 0 44 -19.5t16 -41t11.5 -55.5t13.5 -87q12 -89 36.5 -253.5t54.5 -368.5l94 733q10 57 30.5 74.5t47.5 17.5h194v-100q0 -70 -34 -93q-19 -11 -19 -32l-139 -738q-18 -61 -66 -61h-213q-39 0 -48 10q-14 16 -25 58q-39 190 -59.5 300t-33 173 t-22.5 115q-22 113 -25.5 129t-12.5 23t-21 16q-33 25 -33 89z" />
<glyph unicode="w" horiz-adv-x="1320" d="M35 913v111h182q31 0 52.5 -15.5t26.5 -42t11 -59.5t14.5 -83t19.5 -113.5t28.5 -171t48.5 -297.5l137 712q17 70 84 70h57q59 0 78 -78q2 -6 8 -39t15.5 -83t20.5 -112.5t31 -170t54 -293.5q33 184 53.5 290.5t31.5 169t21.5 113.5t16.5 86t12 62.5t17.5 41t50.5 13.5 h180v-100q0 -72 -35 -97q-14 -10 -18 -32.5t-11.5 -60.5t-17.5 -91t-22.5 -117.5t-33 -172.5t-56.5 -292q-8 -35 -22.5 -48t-49.5 -13h-207q-42 0 -59 43q-12 30 -27.5 120.5t-29 159t-33.5 183.5q-20 -117 -33.5 -186.5t-21 -110.5t-13.5 -76q-10 -57 -17 -88t-22.5 -38 t-38.5 -7h-205q-41 0 -56 11.5t-22.5 36.5t-14.5 61t-17 88.5t-22.5 115t-33 171t-57.5 294.5q-6 31 -22 45q-33 23 -33 90z" />
<glyph unicode="x" horiz-adv-x="808" d="M35 0v141q0 38 33 62q12 12 18 24l135 254q8 16 8 25q0 2 -8 26l-110 250q-12 20 -38 31.5t-26 71.5v137h182q31 0 47.5 -27.5t34 -81t37.5 -106.5t35.5 -94t19.5 -41t62 119q0 4 1 11t-10 17t-12 55v148h312v-148q0 -42 -29 -59q-4 -4 -16.5 -9t-16.5 -20l-133 -251 q-4 -4 -4 -17v-8q0 -4 2 -6l139 -262q8 -20 42 -32.5t34 -70.5v-139h-141q-68 0 -101 68q-2 4 -22.5 41.5t-45 83t-45 82t-21.5 37.5t-1 3l-4 4q-2 0 -6 -4l-47 -88q0 -4 -1 -11t8 -14t9 -22v-180h-321z" />
<glyph unicode="y" horiz-adv-x="833" d="M35 907v117h203q60 0 73 -84q0 -21 12.5 -94.5t21.5 -136t26 -172t45 -301.5q31 186 48 291t27.5 167t19.5 111t14 81t12 61.5t21.5 53t66.5 23.5h174v-109q0 -70 -37 -96q-8 -6 -21 -35q-22 -87 -55 -273.5t-54.5 -307.5t-43.5 -238q-44 -240 -86 -397q-22 -86 -84 -86 h-193v127q0 63 54 92q16 8 25 12t13 19l60 268h-86q-47 0 -56.5 46t-21.5 112.5t-26.5 142.5t-28 152.5t-25.5 141t-19.5 107.5t-13.5 72t-24 41q-41 27 -41 92z" />
<glyph unicode="z" horiz-adv-x="768" d="M55 35v178q0 14 2 18q0 4 57.5 81.5t120 164t99.5 137t64.5 90t46 65.5t18.5 30q8 20 -17 20h-163q-19 0 -19 -33v-53h-125q-35 0 -54 20.5t-19 51.5v188q0 31 30 31h576q37 0 37 -35v-203l-2 -20q-2 -4 -2 -6l-185 -262q-85 -119 -119 -169t-51.5 -75t-19.5 -31t5 -13 t17 -7h156q0 29 16.5 60.5t48.5 31.5h140v-250q0 -16 -14.5 -30.5t-30.5 -14.5h-580q-33 0 -33 35z" />
<glyph unicode="{" horiz-adv-x="868" d="M88 688v164q-2 6 2 12q4 14 23 15h90q60 0 72 21q14 26 14 108v563q0 221 241 221h244q6 0 6 -6v-215q0 -4 -6 -4h-217q-23 0 -22 -29v-530q0 -112 -15.5 -149.5t-34 -52.5t-47.5 -28q61 -28 80 -86q17 -51 17 -168v-534q0 -23 20 -23h219q6 0 6 -6v-215q0 -6 -6 -6h-244 q-241 0 -241 221v592q0 57 -11.5 81.5t-68.5 24.5h-92q-10 0 -19.5 7.5t-9.5 21.5z" />
<glyph unicode="|" horiz-adv-x="321" d="M57 -35v1610q0 6 6 6h195q6 0 6 -6v-1610q0 -6 -6 -6h-195q-6 0 -6 6z" />
<glyph unicode="}" horiz-adv-x="868" d="M88 -39q0 4 6 4h217q23 0 23 29v530q0 111 14 149t33.5 53t48.5 28q-63 27 -79.5 85t-16.5 169v534q0 23 -21 23h-219q-6 0 -6 6v215q0 6 6 6h244q106 0 174 -50t68 -171v-592q0 -57 11 -82t68 -25h93q10 0 19 -7t9 -21v-164q-7 -27 -24 -27h-90q-62 0 -76 -27 q-10 -20 -10 -102v-563q0 -221 -242 -221h-244q-6 0 -6 6v215z" />
<glyph unicode="~" horiz-adv-x="684" d="M68 766v82q0 34 20 46.5t30.5 19t23.5 11.5q36 13 82 13t78 -6t58 -12q72 -19 108 -19q56 0 93 17q55 26 55 -7v-92q0 -27 -21.5 -40t-49 -26.5t-85 -13.5t-123 17.5t-114.5 17.5t-74.5 -8t-44.5 -14q-36 -12 -36 14z" />
<glyph unicode="&#xa1;" horiz-adv-x="401" d="M88 1360v160q0 32 111 32q114 0 114 -28v-162q0 -29 -112.5 -29t-112.5 27zM94 35l15 1104q0 47 30 47h115q37 0 41 -43l12 -1110q0 -23 -9 -36t-40 -13h-108q-25 0 -39.5 8t-16.5 43z" />
<glyph unicode="&#xa2;" horiz-adv-x="827" d="M98 317v385q0 158 82 244t234 86q144 0 232 -90q83 -85 83 -201v-106h-133q-55 0 -83 31.5t-28 72.5t-22.5 61.5t-48.5 20.5q-27 0 -52.5 -16.5t-25.5 -65.5v-438q0 -66 23.5 -83t54.5 -17t54.5 17.5t23.5 53.5v19q0 47 27.5 81t82.5 34h127v-119q0 -133 -84 -215 t-233.5 -82t-231.5 85t-82 242zM358 39h111v-129h-111v129zM358 1016v129h111v-129h-111z" />
<glyph unicode="&#xa3;" horiz-adv-x="905" d="M55 145q88 92 139 237q27 75 27 146.5t-14 153.5h-98v117h73q-27 88 -54.5 170t-29.5 185q-3 156 75 266q53 75 162 108q56 18 132 18q164 0 251 -96t87 -254v-152h-103q-139 0 -139 150q0 74 -27.5 104.5t-80.5 30.5q-90 0 -117 -59q-12 -25 -12 -74.5t8 -102.5 t20.5 -101t27.5 -95t30 -98h125v-117h-105q14 -96 14 -164q0 -154 -79 -293q157 -20 174.5 -20t46 23.5t28.5 82.5v58q0 47 28 80.5t83 33.5h121v-194q0 -154 -74 -230.5t-209 -76.5l-293 20q-60 0 -110 -20v2z" />
<glyph unicode="&#xa5;" horiz-adv-x="995" d="M78 1442v88h340v-96q0 -65 -31 -84q-10 -6 -20.5 -14.5t-6.5 -26.5l129 -475h5q37 127 58 199.5t33.5 115.5t22.5 77t16.5 57.5t9.5 33.5t-10.5 18t-26.5 17q-19 12 -19 90v88h340v-88q0 -55 -46 -92q-31 -15 -36 -37q-3 -6 -29.5 -88t-46.5 -145q-26 -78 -150 -474v-391 q3 -23 20 -36q50 -38 50 -93v-86h-369v86q0 57 47 92q23 18 23 45v383q-63 195 -100.5 305.5t-57.5 174t-37 114.5q-36 113 -38 121q-4 15 -22 28q-48 33 -48 93zM205 426v92q0 6 6 6h571q6 0 6 -6v-92q0 -4 -6 -4h-571q-6 0 -6 4zM205 586v92q0 4 6 4h571q6 0 6 -4v-92 q0 -6 -6 -6h-571q-6 0 -6 6z" />
<glyph unicode="&#xa6;" horiz-adv-x="356" d="M88 -59v731q0 6 6 6h168q6 0 6 -6v-731q0 -6 -6 -7h-168q-6 0 -6 7zM88 836v731q0 6 6 6h168q6 0 6 -6v-731q0 -6 -6 -7h-168q-6 0 -6 7z" />
<glyph unicode="&#xa8;" horiz-adv-x="716" d="M88 1321q0 80 27 80h125q26 0 26 -80t-24 -80h-123q-31 0 -31 80zM451 1321q0 80 24 80h4l121 2q20 0 24.5 -23.5t4.5 -81t-25 -57.5h-125q-28 0 -28 80z" />
<glyph unicode="&#xa9;" horiz-adv-x="1277" d="M94 705q0 226 158 382q160 160 384 160t384 -160t160 -382q0 -225 -160 -383q-160 -160 -383 -160q-225 0 -385 160q-158 158 -158 383zM156 705q0 -200 140 -341q142 -141 340 -141q99 0 187 38t153 103q142 142 142 341q0 198 -141.5 339.5t-339.5 141.5 q-199 0 -341 -142q-140 -140 -140 -339zM406 567v267q0 111 57.5 170t161.5 59q99 0 161 -63q56 -59 56 -140v-74h-92q-39 0 -57.5 22.5t-18.5 51.5t-16.5 42t-32.5 13q-56 0 -56 -55v-303q0 -47 16.5 -58.5t39.5 -11.5q53 0 53 50v12q0 33 18.5 56.5t57.5 23.5h88v-82 q0 -92 -57.5 -149.5t-160.5 -57.5t-160.5 59.5t-57.5 167.5z" />
<glyph unicode="&#xab;" horiz-adv-x="1024" d="M57 612q102 102 203.5 213t218.5 228q4 4 8 0l88 -92q4 -4 0 -9l-294 -336q-8 -4 0 -8l294 -338q2 -2 0 -8l-86 -86q-4 -4 -8 0q-80 80 -134 135.5t-93 95t-64.5 66.5t-45.5 49q-29 32 -87 90zM446 612q36 29 171 176.5t251 264.5q4 4 9 0l88 -92q4 -4 0 -9l-295 -336 q-8 -4 0 -8l295 -338q2 -2 0 -8l-86 -86q-4 -4 -9 0q-80 80 -134 135.5t-93 95t-64.5 66.5t-44.5 49q-68 74 -88 90z" />
<glyph unicode="&#xac;" horiz-adv-x="903" d="M57 526v172q0 6 6 7h777q6 0 6 -7v-172q0 -6 -6 -6h-777q-6 0 -6 6zM662 332v366q0 6 6 7h172q6 0 6 -7v-366q0 -6 -6 -6h-172q-6 0 -6 6z" />
<glyph unicode="&#xad;" horiz-adv-x="565" d="M88 530v172q0 6 6 7h377q6 0 6 -7v-172q0 -6 -6 -6h-377q-6 0 -6 6z" />
<glyph unicode="&#xae;" horiz-adv-x="876" d="M57 994.5q0 158.5 111 269.5q108 112 268 112.5t272 -111.5t111 -270q0 -160 -112.5 -270.5t-268.5 -110.5q-159 0 -270 111t-111 269.5zM119 995q0 -131 94 -225t225 -94q132 0 226 94t94 225q0 132 -94 226q-92 92 -226 92q-133 0 -225 -92q-94 -94 -94 -226zM309 750 v26q0 14 17 31q6 2 6 12v350q0 10 -2 13q-19 13 -19 30v29h123q49 0 77 -30.5t28 -80.5v-59q0 -51 -23 -67q-8 -8 2 -13q21 -18 21 -76v-90q0 -10 6 -14q20 -13 20 -27v-34h-65q-35 0 -35 34v136q0 37 -35 36h-16q-8 0 -8 -8v-127q0 -10 6 -14q16 -11 16 -31v-26h-119z M406 1038q0 -8 8 -8h20q20 0 26.5 10.5t6.5 30.5v66q0 41 -33 41h-20q-8 0 -8 -11v-129z" />
<glyph unicode="&#xaf;" horiz-adv-x="1705" />
<glyph unicode="&#xb0;" horiz-adv-x="544" d="M86 1251v29q4 98 45 149.5t139 51.5q138 0 174 -124q11 -36 11 -73v-33q-2 -88 -44 -142t-141 -54q-98 0 -138 51t-46 145zM188 1247q0 -115 82 -114q80 0 80 118v31q0 117 -81 117t-81 -111v-41z" />
<glyph unicode="&#xb1;" horiz-adv-x="768" d="M84 6v154q0 6 6 6h592q6 0 6 -6v-154q0 -6 -6 -6h-592q-6 0 -6 6zM84 530v172q0 6 4 7h199q6 0 6 6v196q0 6 4 7h174q6 0 6 -7v-196q0 -6 6 -6h197q6 0 6 -7v-172q0 -6 -6 -6h-197q-6 0 -6 -6v-199q0 -4 -6 -4h-174q-4 0 -4 4v199q0 6 -6 6h-199q-4 0 -4 6z" />
<glyph unicode="&#xb4;" horiz-adv-x="493" d="M88 1243q-6 0 0 6l213 215q0 6 6 0l80 -92q0 -4 -2 -6l-242 -178q-6 -6 -6 0z" />
<glyph unicode="&#xb8;" horiz-adv-x="368" d="M57 -311q2 12 11 43q13 48 57 37l65 -19q8 -2 19.5 4t17.5 34t-26 36l-68 16v160h88v-86q53 -16 75.5 -58t7.5 -98q-32 -122 -138 -98z" />
<glyph unicode="&#xbb;" horiz-adv-x="1079" d="M94 272q-4 4 0 9l295 335q8 4 0 9l-295 338q-2 2 0 8l86 86q4 4 8 0q259 -259 308 -313q68 -75 116 -123l-204 -213q-101 -111 -218 -228q-4 -4 -8 0zM483 272q-4 4 0 9l295 335q8 4 0 9l-295 338q-2 2 0 8l86 86q4 4 9 0q80 -80 134 -135.5t93 -95.5t64.5 -66.5 t44.5 -47.5q40 -44 87 -91l-203 -213q-102 -111 -218 -228q-4 -4 -9 0z" />
<glyph unicode="&#xbf;" horiz-adv-x="737" d="M57 319v213q0 78 37 130.5t82 94.5t82 79.5t37 85.5v284h223v-327q0 -68 -38 -115t-83 -87t-83 -76t-38 -79v-190q0 -82 20.5 -114t75 -32t72.5 30.5t21 94.5v191h121q92 0 92 -111v-72q0 -158 -80 -244.5t-228.5 -86.5t-230.5 87t-82 244zM289 1362v154q0 32 119 32 q108 0 108 -28v-156q0 -29 -108 -29q-47 0 -83 7.5t-36 19.5z" />
<glyph unicode="&#xc0;" horiz-adv-x="1001" d="M30 0v82q0 43 22.5 66.5t36 36t19.5 30.5l115 541q20 100 41.5 197.5t38 174t27 124.5t10.5 51v10q0 16 -9.5 26.5t-20.5 23.5q-30 35 -30 95v74q109 0 177.5 1t109.5 -7t60.5 -27.5t25.5 -43t17.5 -80t29.5 -143.5t41 -196.5t60.5 -298t107.5 -522.5q6 -25 27 -39 q51 -35 51 -94v-82h-379v74q0 54 16.5 74t24.5 31t8 30q-10 55 -14 92t-8 59q-9 39 -33 39h-189q-18 0 -26 -4t-10.5 -18t-3.5 -41t-5 -57.5t-6 -61.5t5 -42t14 -23q22 -36 22 -78v-74h-373zM301 1723q-6 6 0 6l76 98q-2 2 6 2l227 -209q2 2 2 0t-2 -4l-41 -61h-6zM411 614 q-2 -14 3 -18t28 -4h143q27 0 23 22l-49 283q-10 53 -18.5 104.5t-15.5 92.5q-15 88 -15 94h-5z" />
<glyph unicode="&#xc1;" horiz-adv-x="1001" d="M30 0v82q0 43 22.5 66.5t36 36t19.5 30.5l115 541q20 100 41.5 197.5t38 174t27 124.5t10.5 51v10q0 16 -9.5 26.5t-20.5 23.5q-30 35 -30 95v74q109 0 177.5 1t109.5 -7t60.5 -27.5t25.5 -43t17.5 -80t29.5 -143.5t41 -196.5t60.5 -298t107.5 -522.5q6 -25 27 -39 q51 -35 51 -94v-82h-379v74q0 54 16.5 74t24.5 31t8 30q-10 55 -14 92t-8 59q-9 39 -33 39h-189q-18 0 -26 -4t-10.5 -18t-3.5 -41t-5 -57.5t-6 -61.5t5 -42t14 -23q22 -36 22 -78v-74h-373zM321 1616q-6 0 0 6l213 215q0 6 6 0l80 -92q0 -4 -2 -6l-242 -178q-6 -6 -6 0z M411 614q-2 -14 3 -18t28 -4h143q27 0 23 22l-49 283q-10 53 -18.5 104.5t-15.5 92.5q-15 88 -15 94h-5z" />
<glyph unicode="&#xc2;" horiz-adv-x="1021" d="M41 0v82q0 43 22.5 66.5t36 36t19.5 30.5l115 541q20 100 41.5 197.5t38 174t27 124.5t10.5 51v10q0 16 -9.5 26.5t-20.5 23.5q-30 35 -30 95v74q109 0 177.5 1t109.5 -7t60.5 -27.5t25.5 -43t17.5 -80t29.5 -143.5t41 -196.5t60.5 -298t107.5 -522.5q6 -25 27 -39 q51 -35 51 -94v-82h-379v74q0 54 16.5 74t24.5 31t8 30q-10 55 -14 92t-8 59q-9 39 -33 39h-189q-18 0 -26 -4t-10.5 -18t-3.5 -41t-5 -57.5t-6 -61.5t5 -42t14 -23q22 -36 22 -78v-74h-373zM252 1604q-6 0 0 6l213 213h6l213 -213q6 -6 0 -6l-53 -51q-2 -2 -4 0l-156 106 q-4 2 -6 0l-156 -106q-4 -4 -4 0zM422 614q-2 -14 3 -18t28 -4h143q27 0 23 22l-49 283q-10 53 -18.5 104.5t-15.5 92.5q-15 88 -15 94h-5z" />
<glyph unicode="&#xc3;" horiz-adv-x="1001" d="M30 0v82q0 43 22.5 66.5t36 36t19.5 30.5l115 541q20 100 41.5 197.5t38 174t27 124.5t10.5 51v10q0 16 -9.5 26.5t-20.5 23.5q-30 35 -30 95v74q109 0 177.5 1t109.5 -7t60.5 -27.5t25.5 -43t17.5 -80t29.5 -143.5t41 -196.5t60.5 -298t107.5 -522.5q6 -25 27 -39 q51 -35 51 -94v-82h-379v74q0 54 16.5 74t24.5 31t8 30q-10 55 -14 92t-8 59q-9 39 -33 39h-189q-18 0 -26 -4t-10.5 -18t-3.5 -41t-5 -57.5t-6 -61.5t5 -42t14 -23q22 -36 22 -78v-74h-373zM248 1612v66q0 27 20 45q16 10 35 19t60 9t65.5 -4t45.5 -10q47 -14 80 -14 q51 0 78 13q40 19 40 -3v-78q-1 -23 -16 -34q-44 -32 -96 -32t-103 14.5t-91 14.5q-44 0 -96 -22q-23 -6 -22 16zM411 614q-2 -14 3 -18t28 -4h143q27 0 23 22l-49 283q-10 53 -18.5 104.5t-15.5 92.5q-15 88 -15 94h-5z" />
<glyph unicode="&#xc4;" horiz-adv-x="1001" d="M30 0v82q0 43 22.5 66.5t36 36t19.5 30.5l115 541q20 100 41.5 197.5t38 174t27 124.5t10.5 51v10q0 16 -9.5 26.5t-20.5 23.5q-30 35 -30 95v74q109 0 177.5 1t109.5 -7t60.5 -27.5t25.5 -43t17.5 -80t29.5 -143.5t41 -196.5t60.5 -298t107.5 -522.5q6 -25 27 -39 q51 -35 51 -94v-82h-379v74q0 54 16.5 74t24.5 31t8 30q-10 55 -14 92t-8 59q-9 39 -33 39h-189q-18 0 -26 -4t-10.5 -18t-3.5 -41t-5 -57.5t-6 -61.5t5 -42t14 -23q22 -36 22 -78v-74h-373zM170 1640q0 80 27 80h125q26 0 26 -80t-24 -80h-123q-31 0 -31 80zM411 614 q-2 -14 3 -18t28 -4h143q27 0 23 22l-49 283q-10 53 -18.5 104.5t-15.5 92.5q-15 88 -15 94h-5zM533 1640q0 80 24 80h4l121 2q20 0 24.5 -23.5t4.5 -81t-25 -57.5h-125q-28 0 -28 80z" />
<glyph unicode="&#xc5;" horiz-adv-x="1021" d="M41 0v82q0 43 22.5 66.5t36 36t19.5 30.5l115 541q20 100 41.5 197.5t38 174t27 124.5t10.5 51v10q0 16 -9.5 26.5t-20.5 23.5q-30 35 -30 95v74q109 0 177.5 1t109.5 -7t60.5 -27.5t25.5 -43t17.5 -80t29.5 -143.5t41 -196.5t60.5 -298t107.5 -522.5q6 -25 27 -39 q51 -35 51 -94v-82h-379v74q0 54 16.5 74t24.5 31t8 30q-10 55 -14 92t-8 59q-9 39 -33 39h-189q-18 0 -26 -4t-10.5 -18t-3.5 -41t-5 -57.5t-6 -61.5t5 -42t14 -23q22 -36 22 -78v-74h-373zM276 1786v29q4 98 45 149.5t139 51.5q138 0 174 -124q11 -36 11 -73v-33 q-2 -88 -44 -142t-141 -54q-98 0 -138 51t-46 145zM378 1782q0 -115 81 -115t81 119v31q0 117 -81 117t-81 -111v-41zM422 614q-2 -14 3 -18t28 -4h143q27 0 23 22l-49 283q-10 53 -18.5 104.5t-15.5 92.5q-15 88 -15 94h-5z" />
<glyph unicode="&#xc6;" horiz-adv-x="1318" d="M88 2v61q0 60 45 91q25 20 31 45q154 545 195.5 696.5t63 229t35 125.5t15.5 57q6 27 -31 41q-23 10 -46 35.5t-23 72.5v76h166q6 0 10 -2v2h614q25 0 46.5 -18.5t21.5 -34.5v-232h-70q-41 0 -65.5 20.5t-36.5 42.5t-41 21h-123q-10 0 -19.5 -8t-9.5 -20v-381 q0 -16 9.5 -23.5t21.5 -7.5h176q10 0 20.5 -7t10.5 -24v-141q0 -29 -29 -29h-178q-31 0 -31 -28v-437q0 -12 11.5 -20t21.5 -8h131q18 0 29 20q10 20 18 30.5t56 10.5h98v-205q0 -23 -15.5 -37t-37.5 -14h-635v55q0 20 6 37q6 60 63 92q10 4 18.5 17.5t8.5 25.5v125 q-4 25 -10 25h-148q-18 0 -24 -2t-12.5 -18.5t-14.5 -42.5q-25 -79 -43 -126q0 -27 19 -43q43 -27 43 -90v-55h-361zM501 591q-1 -11 7 -14.5t20 -3.5h76q27 0 35 11v651h-6l-66 -315q-12 -59 -24.5 -117t-21.5 -104q-19 -97 -20 -108z" />
<glyph unicode="&#xc7;" horiz-adv-x="854" d="M67 313v910q0 150 110 242q104 87 261 87q155 0 259 -87q108 -91 108 -242v-174h-123q-51 0 -87 31.5t-36 80.5v78q0 39 -36 77t-92 38t-90 -38t-34 -77v-956q0 -33 37 -68t80 -35t66.5 10.5t41.5 26.5q35 32 35 72v82q0 47 27.5 81.5t81.5 34.5h129v-174 q0 -151 -108 -242q-104 -87 -259 -87q-157 0 -261 87q-110 92 -110 242zM293 -311q2 12 11 43q13 48 57 37l65 -19q8 -2 19.5 4t17.5 34t-26 36l-68 16v160h88v-86q53 -16 75.5 -58t7.5 -98q-32 -122 -138 -98z" />
<glyph unicode="&#xc8;" horiz-adv-x="860" d="M98 0v82q0 82 43 102q26 10 26 43v1076q0 33 -23 45q-46 24 -46 96v88h667q23 0 44.5 -17.5t21.5 -33.5v-232h-82q-70 0 -102 60q-10 25 -43 24h-170q-10 0 -18.5 -9t-8.5 -19v-387q0 -29 29 -29h237q10 0 21.5 -7.5t11.5 -23.5v-143q0 -29 -31 -29h-239q-29 0 -29 -29 v-434q0 -14 10.5 -22t20.5 -8h178q20 0 27 24q10 45 39.5 61.5t76.5 16.5h72v-244q0 -23 -15.5 -37t-37.5 -14h-680zM264 1745q-6 6 0 6l76 98q-2 2 6 2l227 -209q2 2 2 0t-2 -4l-41 -61h-6z" />
<glyph unicode="&#xc9;" horiz-adv-x="860" d="M98 0v82q0 82 43 102q26 10 26 43v1076q0 33 -23 45q-46 24 -46 96v88h667q23 0 44.5 -17.5t21.5 -33.5v-232h-82q-70 0 -102 60q-10 25 -43 24h-170q-10 0 -18.5 -9t-8.5 -19v-387q0 -29 29 -29h237q10 0 21.5 -7.5t11.5 -23.5v-143q0 -29 -31 -29h-239q-29 0 -29 -29 v-434q0 -14 10.5 -22t20.5 -8h178q20 0 27 24q10 45 39.5 61.5t76.5 16.5h72v-244q0 -23 -15.5 -37t-37.5 -14h-680zM285 1624q-6 0 0 6l213 215q0 6 6 0l80 -92q0 -4 -2 -6l-242 -178q-6 -6 -6 0z" />
<glyph unicode="&#xca;" horiz-adv-x="868" d="M103 0v82q0 82 43 102q26 10 26 43v1076q0 33 -23 45q-46 24 -46 96v88h667q23 0 44.5 -17.5t21.5 -33.5v-232h-82q-70 0 -102 60q-10 25 -43 24h-170q-10 0 -18.5 -9t-8.5 -19v-387q0 -29 29 -29h237q10 0 21.5 -7.5t11.5 -23.5v-143q0 -29 -31 -29h-239q-29 0 -29 -29 v-434q0 -14 10.5 -22t20.5 -8h178q20 0 27 24q10 45 39.5 61.5t76.5 16.5h72v-244q0 -23 -15.5 -37t-37.5 -14h-680zM221 1614q-6 0 0 6l213 213h6l213 -213q6 -6 0 -6l-53 -51q-2 -2 -4 0l-156 106q-4 2 -6 0l-156 -106q-4 -4 -4 0z" />
<glyph unicode="&#xcb;" horiz-adv-x="860" d="M98 0v82q0 82 43 102q26 10 26 43v1076q0 33 -23 45q-46 24 -46 96v88h667q23 0 44.5 -17.5t21.5 -33.5v-232h-82q-70 0 -102 60q-10 25 -43 24h-170q-10 0 -18.5 -9t-8.5 -19v-387q0 -29 29 -29h237q10 0 21.5 -7.5t11.5 -23.5v-143q0 -29 -31 -29h-239q-29 0 -29 -29 v-434q0 -14 10.5 -22t20.5 -8h178q20 0 27 24q10 45 39.5 61.5t76.5 16.5h72v-244q0 -23 -15.5 -37t-37.5 -14h-680zM158 1669q0 80 27 80h125q26 0 26 -80t-24 -80h-123q-31 0 -31 80zM521 1669q0 80 24 80h4l121 2q20 0 24.5 -23.5t4.5 -81t-25 -57.5h-125q-28 0 -28 80z " />
<glyph unicode="&#xcc;" horiz-adv-x="565" d="M86 0v86q0 55 49 92q17 17 20 41v1088q0 23 -20 45q-49 37 -49 92v88h381v-88q0 -55 -49 -92q-21 -17 -21 -45v-1084q0 -30 18 -43q52 -38 52 -94v-86h-381zM131 1735q-6 6 0 6l76 98q-2 2 6 2l227 -209q2 2 2 0t-2 -4l-41 -61h-6z" />
<glyph unicode="&#xcd;" horiz-adv-x="565" d="M86 0v86q0 55 49 92q17 17 20 41v1088q0 23 -20 45q-49 37 -49 92v88h381v-88q0 -55 -49 -92q-21 -17 -21 -45v-1084q0 -30 18 -43q52 -38 52 -94v-86h-381zM121 1605q-6 0 0 6l213 215q0 6 6 0l80 -92q0 -4 -2 -6l-242 -178q-6 -6 -6 0z" />
<glyph unicode="&#xce;" horiz-adv-x="509" d="M41 1610q-6 0 0 6l213 213h6l213 -213q6 -6 0 -6l-53 -51q-2 -2 -4 0l-156 106q-4 2 -6 0l-156 -106q-4 -4 -4 0zM68 0v86q0 55 49 92q17 17 20 41v1088q0 23 -20 45q-49 37 -49 92v88h381v-88q0 -55 -49 -92q-21 -17 -21 -45v-1084q0 -30 18 -43q52 -38 52 -94v-86h-381 z" />
<glyph unicode="&#xcf;" horiz-adv-x="497" d="M-10 1671q0 80 27 80h125q26 0 26 -80t-24 -80h-123q-31 0 -31 80zM58 0v86q0 55 49 92q17 17 20 41v1088q0 23 -20 45q-49 37 -49 92v88h381v-88q0 -55 -49 -92q-21 -17 -21 -45v-1084q0 -30 18 -43q52 -38 52 -94v-86h-381zM353 1671q0 80 24 80h4l121 2 q20 0 24.5 -23.5t4.5 -81t-25 -57.5h-125q-28 0 -28 80z" />
<glyph unicode="&#xd0;" horiz-adv-x="913" d="M53 680v172q0 6 6 6h91v445q0 33 -27 47q-43 23 -43 94v88h399q328 0 328 -332v-868q0 -152 -77 -242t-251 -90h-399v82q0 81 45 102q25 10 25 43v447h-91q-6 0 -6 6zM379 223q0 -29 29 -28h71q84 0 95 81q4 23 4 48v880q0 95 -46 119q-20 10 -53 10h-71q-29 0 -29 -30 v-445h57q6 0 6 -6v-172q0 -6 -6 -6h-57v-451z" />
<glyph unicode="&#xd1;" horiz-adv-x="1034" d="M82 0v86q0 56 51 96q18 18 18 41v1102q-38 11 -58 55q-11 23 -11 58v94h178q25 0 53.5 -11.5t44.5 -58.5q10 -19 56.5 -140.5t82 -213.5t68.5 -177q74 -189 90 -245q2 -6 4 -1t2 11v613q0 25 -20 45q-49 37 -49 92v86h360v-86q0 -29 -4 -53.5t-19.5 -37.5t-20.5 -20.5 t-5 -25.5v-1262q0 -47 -43 -47h-119q-29 0 -44 24.5t-23 47t-31 80t-52.5 136.5t-64.5 168t-63.5 164.5t-48 126t-19.5 53.5t-2 4t-2 -9v-572q0 -26 18 -42q52 -42 52 -95v-86h-379zM301 1602v66q0 27 20 45q16 10 35 19t60 9t65.5 -4t45.5 -10q47 -14 80 -14q51 0 78 13 q40 19 40 -3v-78q-1 -23 -16 -34q-44 -32 -96 -32t-103 14.5t-91 14.5q-44 0 -96 -22q-23 -6 -22 16z" />
<glyph unicode="&#xd2;" horiz-adv-x="935" d="M98 293v950q0 150 110 233q102 76 259 76q159 0 261 -76q110 -83 110 -233v-950q0 -148 -110 -234q-96 -75 -261 -75q-251 0 -339 172q-30 59 -30 137zM297 1755q-6 6 0 6l76 98q-2 2 6 2l227 -209q2 2 2 0t-2 -4l-41 -61h-6zM338 317q0 -137 129 -137q57 0 94 32t37 114 v893q0 80 -37 107.5t-93 27.5t-93 -28t-37 -107v-902z" />
<glyph unicode="&#xd3;" d="M88 293v950q0 150 110 233q102 76 259 76q159 0 261 -76q110 -83 110 -233v-950q0 -148 -110 -234q-96 -75 -261 -75q-251 0 -339 172q-30 59 -30 137zM295 1636q-6 0 0 6l213 215q0 6 6 0l80 -92q0 -4 -2 -6l-242 -178q-6 -6 -6 0zM328 317q0 -137 129 -137q57 0 94 32 t37 114v893q0 80 -37 107.5t-93 27.5t-93 -28t-37 -107v-902z" />
<glyph unicode="&#xd4;" horiz-adv-x="935" d="M98 293v950q0 150 110 233q102 76 259 76q159 0 261 -76q110 -83 110 -233v-950q0 -148 -110 -234q-96 -75 -261 -75q-251 0 -339 172q-30 59 -30 137zM256 1614q-6 0 0 6l213 213h6l213 -213q6 -6 0 -6l-53 -51q-2 -2 -4 0l-156 106q-4 2 -6 0l-156 -106q-4 -4 -4 0z M338 317q0 -137 129 -137q57 0 94 32t37 114v893q0 80 -37 107.5t-93 27.5t-93 -28t-37 -107v-902z" />
<glyph unicode="&#xd5;" d="M88 293v950q0 150 110 233q102 76 259 76q159 0 261 -76q110 -83 110 -233v-950q0 -148 -110 -234q-96 -75 -261 -75q-251 0 -339 172q-30 59 -30 137zM238 1624v66q0 27 20 45q16 10 35 19t60 9t65.5 -4t45.5 -10q47 -14 80 -14q51 0 78 13q40 19 40 -3v-78 q-1 -23 -16 -34q-44 -32 -96 -32t-103 14.5t-91 14.5q-44 0 -96 -22q-23 -6 -22 16zM328 317q0 -137 129 -137q57 0 94 32t37 114v893q0 80 -37 107.5t-93 27.5t-93 -28t-37 -107v-902z" />
<glyph unicode="&#xd6;" d="M88 293v950q0 150 110 233q102 76 259 76q159 0 261 -76q110 -83 110 -233v-950q0 -148 -110 -234q-96 -75 -261 -75q-251 0 -339 172q-30 59 -30 137zM182 1677q0 80 27 80h125q26 0 26 -80t-24 -80h-123q-31 0 -31 80zM328 317q0 -137 129 -137q57 0 94 32t37 114v893 q0 80 -37 107.5t-93 27.5t-93 -28t-37 -107v-902zM545 1677q0 80 24 80h4l121 2q20 0 24.5 -23.5t4.5 -81t-25 -57.5h-125q-28 0 -28 80z" />
<glyph unicode="&#xd7;" horiz-adv-x="729" d="M90 465q-4 4 0 8l139 139q4 4 0 9l-139 139q-4 4 0 8l123 123q4 4 8 0l139 -139q4 -4 9 0l139 139q4 4 8 0l123 -123q4 -4 0 -8l-139 -139q-4 -4 0 -9l139 -139q4 -4 0 -8l-123 -123q-4 -4 -8 0l-139 139q-4 4 -9 0l-139 -139q-4 -4 -8 0z" />
<glyph unicode="&#xd8;" horiz-adv-x="905" d="M57 6l654 1518q2 6 8 6h123q10 0 4 -6l-653 -1518q-6 -6 -9 -6h-123q-4 0 -4 6zM78 293v950q0 151 110 233q103 76 258 76q158 0 262 -76q109 -82 109 -233v-950q0 -149 -109 -234q-98 -75 -262 -75q-252 0 -338 172q-30 59 -30 137zM317 317q0 -137 129 -137 q57 0 94.5 32t37.5 114v893q0 80 -37 107.5t-93.5 27.5t-93.5 -28t-37 -107v-902z" />
<glyph unicode="&#xd9;" horiz-adv-x="1019" d="M76 1475v57h375v-47q0 -35 -15.5 -63.5t-28.5 -39.5q-21 -18 -24 -45v-1009q0 -78 38 -111t94 -33t94 34t38 110v1007q0 30 -20 44q-49 36 -49 108v45h356v-47q0 -75 -37 -105q-17 -17 -20 -43v-1042q0 -152 -105 -233q-97 -74 -256 -74q-254 0 -341 170q-30 59 -30 137 v1040q0 28 -18 41q-51 35 -51 99zM340 1735q-6 6 0 6l76 98q-2 2 6 2l227 -209q2 2 2 0t-2 -4l-41 -61h-6z" />
<glyph unicode="&#xda;" horiz-adv-x="952" d="M47 1475v57h375v-47q0 -35 -15.5 -63.5t-28.5 -39.5q-21 -18 -24 -45v-1009q0 -78 38 -111t94 -33t94 34t38 110v1007q0 30 -20 44q-49 36 -49 108v45h356v-47q0 -75 -37 -105q-17 -17 -20 -43v-1042q0 -152 -105 -233q-97 -74 -256 -74q-254 0 -341 170q-30 59 -30 137 v1040q0 28 -18 41q-51 35 -51 99zM342 1614q-6 0 0 6l213 215q0 6 6 0l80 -92q0 -4 -2 -6l-242 -178q-6 -6 -6 0z" />
<glyph unicode="&#xdb;" horiz-adv-x="952" d="M47 1475v57h375v-47q0 -35 -15.5 -63.5t-28.5 -39.5q-21 -18 -24 -45v-1009q0 -78 38 -111t94 -33t94 34t38 110v1007q0 30 -20 44q-49 36 -49 108v45h356v-47q0 -75 -37 -105q-17 -17 -20 -43v-1042q0 -152 -105 -233q-97 -74 -256 -74q-254 0 -341 170q-30 59 -30 137 v1040q0 28 -18 41q-51 35 -51 99zM268 1614q-6 0 0 6l213 213h6l213 -213q6 -6 0 -6l-53 -51q-2 -2 -4 0l-156 106q-4 2 -6 0l-156 -106q-4 -4 -4 0z" />
<glyph unicode="&#xdc;" horiz-adv-x="952" d="M47 1475v57h375v-47q0 -35 -15.5 -63.5t-28.5 -39.5q-21 -18 -24 -45v-1009q0 -78 38 -111t94 -33t94 34t38 110v1007q0 30 -20 44q-49 36 -49 108v45h356v-47q0 -75 -37 -105q-17 -17 -20 -43v-1042q0 -152 -105 -233q-97 -74 -256 -74q-254 0 -341 170q-30 59 -30 137 v1040q0 28 -18 41q-51 35 -51 99zM219 1640q0 80 27 80h125q26 0 26 -80t-24 -80h-123q-31 0 -31 80zM582 1640q0 80 24 80h4l121 2q20 0 24.5 -23.5t4.5 -81t-25 -57.5h-125q-28 0 -28 80z" />
<glyph unicode="&#xdd;" horiz-adv-x="995" d="M119 1444v88h352v-96q0 -66 -31 -84q-10 -6 -20 -14.5t-6 -26.5l116 -457h5q35 123 59 215q63 233 67.5 246.5t-9 22t-26.5 16.5q-20 12 -20 90v88h352v-88q0 -56 -45 -92q-31 -15 -36 -37q-2 -4 -12.5 -37t-26.5 -83q-48 -143 -87.5 -270t-99.5 -319v-391q3 -23 20 -36 q50 -38 50 -93v-86h-369v86q0 57 47 92q23 18 23 45v383l-115 352q-23 66 -43 129.5t-36.5 114.5t-27 83t-12.5 39q-4 15 -22 27q-47 33 -47 93zM395 1618q-6 0 0 6l213 215q0 6 6 0l80 -92q0 -4 -2 -6l-242 -178q-6 -6 -6 0z" />
<glyph unicode="&#xde;" horiz-adv-x="1705" />
<glyph unicode="&#xe0;" d="M88 317v17q0 139 116 219q48 33 100.5 51.5t92.5 33.5q44 16 107 56q16 12 25 25v51q0 70 -101 70q-57 0 -91 -35q-10 -11 -10.5 -31.5t-21 -42.5t-75.5 -22h-125v53q0 190 178 250q61 20 150 20q178 0 258.5 -72.5t80.5 -197.5v-504q0 -39 13.5 -48t31 -39t17.5 -69 v-100h-201q-25 0 -40 18.5t-19 34.5q-35 -63 -164 -63q-322 0 -322 325zM281 1231q-6 6 0 6l76 98q-2 2 6 2l227 -209q2 2 2 0t-2 -4l-41 -61h-6zM328 283q0 -117 105 -117q44 0 96 31v327l-29 -14q-12 -6 -28.5 -14.5t-45 -20.5t-63.5 -43t-35 -100v-49z" />
<glyph unicode="&#xe1;" d="M81 317v17q0 139 116 219q48 33 100.5 51.5t92.5 33.5q44 16 107 56q16 12 25 25v51q0 70 -101 70q-57 0 -91 -35q-10 -11 -10.5 -31.5t-21 -42.5t-75.5 -22h-125v53q0 190 178 250q61 20 150 20q178 0 258.5 -72.5t80.5 -197.5v-504q0 -39 13.5 -48t31 -39t17.5 -69 v-100h-201q-25 0 -40 18.5t-19 34.5q-35 -63 -164 -63q-322 0 -322 325zM274 1108q-6 0 0 6l213 215q0 6 6 0l80 -92q0 -4 -2 -6l-242 -178q-6 -6 -6 0zM321 283q0 -117 105 -117q44 0 96 31v327l-29 -14q-12 -6 -28.5 -14.5t-45 -20.5t-63.5 -43t-35 -100v-49z" />
<glyph unicode="&#xe2;" d="M86 317v17q0 139 116 219q48 33 100.5 51.5t92.5 33.5q44 16 107 56q16 12 25 25v51q0 70 -101 70q-57 0 -91 -35q-10 -11 -10.5 -31.5t-21 -42.5t-75.5 -22h-125v53q0 190 178 250q61 20 150 20q178 0 258.5 -72.5t80.5 -197.5v-504q0 -39 13.5 -48t31 -39t17.5 -69 v-100h-201q-25 0 -40 18.5t-19 34.5q-35 -63 -164 -63q-322 0 -322 325zM213 1102q-6 0 0 6l213 213h6l213 -213q6 -6 0 -6l-53 -51q-2 -2 -4 0l-156 106q-4 2 -6 0l-156 -106q-4 -4 -4 0zM326 283q0 -117 105 -117q44 0 96 31v327l-29 -14q-12 -6 -28.5 -14.5t-45 -20.5 t-63.5 -43t-35 -100v-49z" />
<glyph unicode="&#xe3;" d="M92 317v17q0 139 116 219q48 33 100.5 51.5t92.5 33.5q44 16 107 56q16 12 25 25v51q0 70 -101 70q-57 0 -91 -35q-10 -11 -10.5 -31.5t-21 -42.5t-75.5 -22h-125v53q0 190 178 250q61 20 150 20q178 0 258.5 -72.5t80.5 -197.5v-504q0 -39 13.5 -48t31 -39t17.5 -69 v-100h-201q-25 0 -40 18.5t-19 34.5q-35 -63 -164 -63q-322 0 -322 325zM234 1110v66q0 27 20 45q16 10 35 19t60 9t65.5 -4t45.5 -10q47 -14 80 -14q51 0 78 13q40 19 40 -3v-78q-1 -23 -16 -34q-44 -32 -96 -32t-103 14.5t-91 14.5q-44 0 -96 -22q-23 -6 -22 16zM332 283 q0 -117 105 -117q44 0 96 31v327l-29 -14q-12 -6 -28.5 -14.5t-45 -20.5t-63.5 -43t-35 -100v-49z" />
<glyph unicode="&#xe4;" d="M88 317v17q0 139 116 219q48 33 100.5 51.5t92.5 33.5q44 16 107 56q16 12 25 25v51q0 70 -101 70q-57 0 -91 -35q-10 -11 -10.5 -31.5t-21 -42.5t-75.5 -22h-125v53q0 190 178 250q61 20 150 20q178 0 258.5 -72.5t80.5 -197.5v-504q0 -39 13.5 -48t31 -39t17.5 -69 v-100h-201q-25 0 -40 18.5t-19 34.5q-35 -63 -164 -63q-322 0 -322 325zM172 1153q0 80 27 80h125q26 0 26 -80t-24 -80h-123q-31 0 -31 80zM328 283q0 -117 105 -117q44 0 96 31v327l-29 -14q-12 -6 -28.5 -14.5t-45 -20.5t-63.5 -43t-35 -100v-49zM535 1153q0 80 24 80h4 l121 2q20 0 24.5 -23.5t4.5 -81t-25 -57.5h-125q-28 0 -28 80z" />
<glyph unicode="&#xe5;" d="M88 317v17q0 139 116 219q48 33 100.5 51.5t92.5 33.5q44 16 107 56q16 12 25 25v51q0 70 -101 70q-57 0 -91 -35q-10 -11 -10.5 -31.5t-21 -42.5t-75.5 -22h-125v53q0 190 178 250q61 20 150 20q178 0 258.5 -72.5t80.5 -197.5v-504q0 -39 13.5 -48t31 -39t17.5 -69 v-100h-201q-25 0 -40 18.5t-19 34.5q-35 -63 -164 -63q-322 0 -322 325zM246 1259v29q4 98 45 149.5t139 51.5q138 0 174 -124q11 -36 11 -73v-33q-2 -88 -44 -142t-141 -54q-98 0 -138 51t-46 145zM328 283q0 -117 105 -117q44 0 96 31v327l-29 -14q-12 -6 -28.5 -14.5 t-45 -20.5t-63.5 -43t-35 -100v-49zM348 1255q0 -115 81 -115t81 119v31q0 117 -81 117t-81 -111v-41z" />
<glyph unicode="&#xe6;" horiz-adv-x="1220" d="M88 313v66q0 166 79 238.5t214 72.5q56 0 121 -26v66q0 72 -23.5 95t-74.5 23q-84 0 -85 -84q0 -23 -14 -39t-69 -16h-132v82q0 171 166 229q60 20 172.5 20t190.5 -55q74 49 186 49q152 0 233 -86t81 -243v-132q0 -104 -136 -104h-258v-166q0 -108 80 -108 q47 0 62.5 24.5t15.5 44.5v23q0 47 24.5 80.5t77.5 33.5h134v-135q0 -135 -82 -204.5t-224.5 -69.5t-222.5 67q-6 4 -12 11v2q-29 -25 -84 -52.5t-135 -27.5t-140.5 25.5t-92.5 69.5q-52 73 -52 226zM313 324q0 -74 36 -101.5t73 -27.5t82 28v248q-6 13 -30.5 25t-51.5 16 q-72 10 -90.5 -35t-18.5 -125v-28zM739 651h152v62q0 116 -72 116q-80 0 -80 -116v-62z" />
<glyph unicode="&#xe7;" horiz-adv-x="847" d="M81 317v385q0 158 95.5 244t246.5 86q146 0 243 -90q93 -87 93 -201v-106h-133q-55 0 -82.5 31.5t-27.5 75.5t-33 61.5t-52.5 17.5t-37 -4t-32.5 -13q-36 -22 -36 -65v-438q0 -100 98 -100q31 0 65 17.5t34 53.5v19q0 47 27.5 81t82.5 34h127v-119q0 -134 -94 -215 q-95 -82 -244.5 -82t-244.5 85t-95 242zM290 -311q2 12 11 43q13 48 57 37l65 -19q8 -2 19.5 4t17.5 34t-26 36l-68 16v160h88v-86q53 -16 75.5 -58t7.5 -98q-32 -122 -138 -98z" />
<glyph unicode="&#xe8;" horiz-adv-x="892" d="M98 322v385q0 151 100 242q93 85 251 85q154 0 248 -85q98 -88 98 -242v-134q0 -102 -105 -102h-350v-186q0 -41 31 -64.5t78 -23.5t77.5 24.5t30.5 42.5v25q0 47 24.5 80.5t80.5 33.5h133v-135q0 -131 -100 -204q-96 -72 -246 -72q-156 0 -251 87q-100 91 -100 243z M274 1225q-6 6 0 6l76 98q-2 2 6 2l227 -209q2 2 2 0t-2 -4l-41 -61h-6zM340 633h211v82q0 63 -42 95q-27 21 -64 21q-61 0 -92 -57q-13 -22 -13 -59v-82z" />
<glyph unicode="&#xe9;" horiz-adv-x="894" d="M98 322v385q0 151 100 242q93 85 251 85q154 0 248 -85q98 -88 98 -242v-134q0 -102 -105 -102h-350v-186q0 -41 31 -64.5t78 -23.5t77.5 24.5t30.5 42.5v25q0 47 24.5 80.5t80.5 33.5h133v-135q0 -131 -100 -204q-96 -72 -246 -72q-156 0 -251 87q-100 91 -100 243z M299 1112q-6 0 0 6l213 215q0 6 6 0l80 -92q0 -4 -2 -6l-242 -178q-6 -6 -6 0zM340 633h211v82q0 63 -42 95q-27 21 -64 21q-61 0 -92 -57q-13 -22 -13 -59v-82z" />
<glyph unicode="&#xea;" horiz-adv-x="894" d="M98 322v385q0 151 100 242q93 85 251 85q154 0 248 -85q98 -88 98 -242v-134q0 -102 -105 -102h-350v-186q0 -41 31 -64.5t78 -23.5t77.5 24.5t30.5 42.5v25q0 47 24.5 80.5t80.5 33.5h133v-135q0 -131 -100 -204q-96 -72 -246 -72q-156 0 -251 87q-100 91 -100 243z M227 1086q-6 0 0 6l213 213h6l213 -213q6 -6 0 -6l-53 -51q-2 -2 -4 0l-156 106q-4 2 -6 0l-156 -106q-4 -4 -4 0zM340 633h211v82q0 63 -42 95q-27 21 -64 21q-61 0 -92 -57q-13 -22 -13 -59v-82z" />
<glyph unicode="&#xeb;" horiz-adv-x="892" d="M98 322v385q0 151 100 242q93 85 251 85q154 0 248 -85q98 -88 98 -242v-134q0 -102 -105 -102h-350v-186q0 -41 31 -64.5t78 -23.5t77.5 24.5t30.5 42.5v25q0 47 24.5 80.5t80.5 33.5h133v-135q0 -131 -100 -204q-96 -72 -246 -72q-156 0 -251 87q-100 91 -100 243z M186 1161q0 80 27 80h125q26 0 26 -80t-24 -80h-123q-31 0 -31 80zM340 633h211v82q0 63 -42 95q-27 21 -64 21q-61 0 -92 -57q-13 -22 -13 -59v-82zM549 1161q0 80 24 80h4l121 2q20 0 24.5 -23.5t4.5 -81t-25 -57.5h-125q-28 0 -28 80z" />
<glyph unicode="&#xec;" horiz-adv-x="514" d="M45 1247q-6 6 0 6l76 99q-2 2 6 2l227 -209q2 2 2 0t-2 -4l-41 -62h-6zM68 0h381v100q0 65 -48 95q-22 18 -22 45v745q0 39 -37 39h-274v-117q0 -64 45 -90q23 -14 22 -37v-549q-3 -21 -20 -33q-47 -32 -47 -96v-102z" />
<glyph unicode="&#xed;" horiz-adv-x="532" d="M78 0h381v100q0 66 -47 95q-23 18 -23 45v745q0 39 -37 39h-274v-117q0 -64 45 -90q23 -14 22 -37v-549q-3 -21 -20 -33q-47 -32 -47 -96v-102zM113 1135q-6 0 0 6l213 215q0 6 6 0l80 -92q0 -4 -2 -7l-242 -178q-6 -6 -6 0z" />
<glyph unicode="&#xee;" horiz-adv-x="512" d="M10 1122q-6 0 0 6l213 213h6l213 -213q6 -6 0 -6l-53 -51q-2 -2 -4 0l-156 107q-4 2 -6 0l-155 -107q-4 -4 -5 0zM63 0v102q0 64 48 95q17 13 20 34v549q0 23 -19 35q-49 31 -49 92v117h275q37 0 37 -39v-745q0 -27 19 -41q50 -37 50 -99v-100h-381z" />
<glyph unicode="&#xef;" horiz-adv-x="583" d="M-12 1180q0 80 26 80h125q27 0 27 -80t-25 -80h-123q-30 0 -30 80zM90 0v102q0 63 47 95q18 14 21 34v549q0 23 -20 35q-48 30 -48 92v117h275q36 0 36 -39v-745q0 -27 19 -41q51 -37 51 -99v-100h-381zM350 1180q0 80 25 80h4l121 2q20 0 24 -23.5t4 -81t-24 -57.5h-125 q-29 0 -29 80z" />
<glyph unicode="&#xf1;" horiz-adv-x="1009" d="M80 0v96q0 65 47 94q10 8 15.5 14.5t7.5 26.5v517q0 61 -25 75q-45 34 -45 92v109h273q30 0 41 -43q84 51 174 51t143 -25.5t87 -71.5q65 -88 65 -255v-449q0 -28 22 -41q35 -30 35 -96v-94h-203q-43 0 -70.5 42t-27.5 95v535q0 72 -24.5 110.5t-96 38.5t-104.5 -49v-539 q0 -28 19 -41q50 -36 50 -98l-2 -94h-381zM295 1126v66q0 27 20 45q16 10 35 19t60 9t65.5 -4t45.5 -10q47 -14 80 -14q51 0 78 13q40 19 40 -3v-78q-1 -23 -16 -34q-44 -32 -96 -32t-103 14.5t-91 14.5q-44 0 -96 -22q-23 -6 -22 16z" />
<glyph unicode="&#xf2;" horiz-adv-x="899" d="M98 299v426q0 152 101 233q93 74 249 74q75 0 139 -24.5t112 -64.5q102 -84 102 -200v-454q0 -133 -102 -215q-101 -82 -250 -82q-245 0 -324 170q-27 59 -27 137zM283 1248q-6 6 0 6l76 98q-2 2 6 2l227 -209q2 2 2 0t-2 -4l-41 -61h-6zM340 291q0 -27 27 -61.5 t82 -34.5t82.5 31.5t27.5 66.5v432q0 35 -26.5 69.5t-82.5 34.5t-83 -30.5t-27 -65.5v-442z" />
<glyph unicode="&#xf3;" horiz-adv-x="907" d="M102 299v426q0 152 101 233q93 74 249 74q75 0 139 -24.5t112 -64.5q102 -84 102 -200v-454q0 -133 -102 -215q-101 -82 -250 -82q-245 0 -324 170q-27 59 -27 137zM301 1128q-6 0 0 6l213 215q0 6 6 0l80 -92q0 -4 -2 -6l-242 -178q-6 -6 -6 0zM344 291q0 -27 27 -61.5 t82 -34.5t82.5 31.5t27.5 66.5v432q0 35 -26.5 69.5t-82.5 34.5t-83 -30.5t-27 -65.5v-442z" />
<glyph unicode="&#xf4;" horiz-adv-x="907" d="M102 299v426q0 152 101 233q93 74 249 74q75 0 139 -24.5t112 -64.5q102 -84 102 -200v-454q0 -133 -102 -215q-101 -82 -250 -82q-245 0 -324 170q-27 59 -27 137zM237 1108q-6 0 0 6l213 213h6l213 -213q6 -6 0 -6l-53 -51q-2 -2 -4 0l-156 106q-4 2 -6 0l-156 -106 q-4 -4 -4 0zM344 291q0 -27 27 -61.5t82 -34.5t82.5 31.5t27.5 66.5v432q0 35 -26.5 69.5t-82.5 34.5t-83 -30.5t-27 -65.5v-442z" />
<glyph unicode="&#xf5;" horiz-adv-x="907" d="M102 299v426q0 152 101 233q93 74 249 74q75 0 139 -24.5t112 -64.5q102 -84 102 -200v-454q0 -133 -102 -215q-101 -82 -250 -82q-245 0 -324 170q-27 59 -27 137zM242 1112v66q0 27 20 45q16 10 35 19t60 9t65.5 -4t45.5 -10q47 -14 80 -14q51 0 78 13q40 19 40 -3v-78 q-1 -23 -16 -34q-44 -32 -96 -32t-103 14.5t-91 14.5q-44 0 -96 -22q-23 -6 -22 16zM344 291q0 -27 27 -61.5t82 -34.5t82.5 31.5t27.5 66.5v432q0 35 -26.5 69.5t-82.5 34.5t-83 -30.5t-27 -65.5v-442z" />
<glyph unicode="&#xf6;" horiz-adv-x="907" d="M102 299v426q0 152 101 233q93 74 249 74q75 0 139 -24.5t112 -64.5q102 -84 102 -200v-454q0 -133 -102 -215q-101 -82 -250 -82q-245 0 -324 170q-27 59 -27 137zM178 1151q0 80 27 80h125q26 0 26 -80t-24 -80h-123q-31 0 -31 80zM344 291q0 -27 27 -61.5t82 -34.5 t82.5 31.5t27.5 66.5v432q0 35 -26.5 69.5t-82.5 34.5t-83 -30.5t-27 -65.5v-442zM541 1151q0 80 24 80h4l121 2q20 0 24.5 -23.5t4.5 -81t-25 -57.5h-125q-28 0 -28 80z" />
<glyph unicode="&#xf7;" horiz-adv-x="946" d="M96 521v185q0 7 8 8h754q8 0 8 -8v-185q0 -7 -8 -7h-754q-8 0 -8 7zM352 246v170q0 31 120 31t120 -27v-170q0 -16 -34 -25.5t-85 -9.5q-121 0 -121 31zM352 807v170q0 31 120 31t120 -29v-170q0 -30 -120 -30t-120 28z" />
<glyph unicode="&#xf8;" horiz-adv-x="886" d="M106 319v386q0 158 91.5 242.5t242.5 84.5q100 0 181 -45l16 33q2 6 8 6h123q10 0 4 -6l-55 -113q59 -71 59 -164v-454q0 -133 -93 -215t-243 -82q-94 0 -168 35l-10 -21q-6 -6 -8 -6h-123q-4 0 -4 6l49 96q-70 82 -70 217zM342 434l180 357q-28 38 -82.5 38t-76 -30.5 t-21.5 -65.5v-299zM371 221q22 -26 73 -26t74 31.5t23 66.5v266z" />
<glyph unicode="&#xf9;" horiz-adv-x="946" d="M58 913v111h233q66 0 66 -76v-643q0 -70 62 -105q22 -12 62.5 -12t106.5 31v561q0 24 -29.5 46t-29.5 87v111h235q35 0 51.5 -22.5t16.5 -37.5v-203l-2 -337v-186q3 -30 21 -40q38 -24 38 -98v-100h-164q-35 0 -48 11.5t-23 31.5q-49 -49 -180 -49q-245 0 -329 175 q-28 58 -28 136v475q0 25 -19 39q-40 29 -40 94zM301 1229q-6 6 0 6l76 98q-2 2 6 2l227 -209q2 2 2 0t-2 -4l-41 -61h-6z" />
<glyph unicode="&#xfa;" horiz-adv-x="946" d="M58 913v111h233q66 0 66 -76v-643q0 -70 62 -105q22 -12 62.5 -12t106.5 31v561q0 24 -29.5 46t-29.5 87v111h235q35 0 51.5 -22.5t16.5 -37.5v-203l-2 -337v-186q3 -30 21 -40q38 -24 38 -98v-100h-164q-35 0 -48 11.5t-23 31.5q-49 -49 -180 -49q-245 0 -329 175 q-28 58 -28 136v475q0 25 -19 39q-40 29 -40 94zM313 1116q-6 0 0 6l213 215q0 6 6 0l80 -92q0 -4 -2 -6l-242 -178q-6 -6 -6 0z" />
<glyph unicode="&#xfb;" horiz-adv-x="946" d="M58 913v111h233q66 0 66 -76v-643q0 -70 62 -105q22 -12 62.5 -12t106.5 31v561q0 24 -29.5 46t-29.5 87v111h235q35 0 51.5 -22.5t16.5 -37.5v-203l-2 -337v-186q3 -30 21 -40q38 -24 38 -98v-100h-164q-35 0 -48 11.5t-23 31.5q-49 -49 -180 -49q-245 0 -329 175 q-28 58 -28 136v475q0 25 -19 39q-40 29 -40 94zM254 1116q-6 0 0 6l213 213h6l213 -213q6 -6 0 -6l-53 -51q-2 -2 -4 0l-156 106q-4 2 -6 0l-156 -106q-4 -4 -4 0z" />
<glyph unicode="&#xfc;" horiz-adv-x="946" d="M58 913v111h233q66 0 66 -76v-643q0 -70 62 -105q22 -12 62.5 -12t106.5 31v561q0 24 -29.5 46t-29.5 87v111h235q35 0 51.5 -22.5t16.5 -37.5v-203l-2 -337v-186q3 -30 21 -40q38 -24 38 -98v-100h-164q-35 0 -48 11.5t-23 31.5q-49 -49 -180 -49q-245 0 -329 175 q-28 58 -28 136v475q0 25 -19 39q-40 29 -40 94zM213 1165q0 80 27 80h125q26 0 26 -80t-24 -80h-123q-31 0 -31 80zM576 1165q0 80 24 80h4l121 2q20 0 24.5 -23.5t4.5 -81t-25 -57.5h-125q-28 0 -28 80z" />
<glyph unicode="&#xfd;" horiz-adv-x="962" d="M98 907v117h203q60 0 73 -84q0 -21 12.5 -94.5t21.5 -136t26 -172t45 -301.5q31 186 48 291t27.5 167t19.5 111t14 81t12 61.5t21.5 53t66.5 23.5h174v-109q0 -70 -37 -96q-8 -6 -21 -35q-22 -87 -55 -273.5t-54.5 -307.5t-43.5 -238q-44 -240 -86 -397q-22 -86 -84 -86 h-193v127q0 63 54 92q16 8 25 12t13 19l60 268h-86q-47 0 -56.5 46t-21.5 112.5t-26.5 142.5t-28 152.5t-25.5 141t-19.5 107.5t-13.5 72t-24 41q-41 27 -41 92zM326 1100q-6 0 0 6l213 215q0 6 6 0l80 -92q0 -4 -2 -6l-242 -178q-6 -6 -6 0z" />
<glyph unicode="&#xfe;" horiz-adv-x="768" d="M57 -289v1610q0 6 6 6h222q6 0 6 -6v-334q10 10 56 28.5t123 18.5t124 -18.5t72 -55.5q45 -66 45 -233v-403q0 -170 -60 -248q-69 -90 -229 -82q-87 5 -131 29v-312q0 -6 -6 -6h-222q-6 0 -6 6zM291 258q22 -36 68 -40.5t84 21t38 103.5v387q0 117 -121 102 q-57 -10 -69 -49v-524z" />
<glyph unicode="&#xff;" horiz-adv-x="962" d="M98 907v117h203q60 0 73 -84q0 -21 12.5 -94.5t21.5 -136t26 -172t45 -301.5q31 186 48 291t27.5 167t19.5 111t14 81t12 61.5t21.5 53t66.5 23.5h174v-109q0 -70 -37 -96q-8 -6 -21 -35q-22 -87 -55 -273.5t-54.5 -307.5t-43.5 -238q-44 -240 -86 -397q-22 -86 -84 -86 h-193v127q0 63 54 92q16 8 25 12t13 19l60 268h-86q-47 0 -56.5 46t-21.5 112.5t-26.5 142.5t-28 152.5t-25.5 141t-19.5 107.5t-13.5 72t-24 41q-41 27 -41 92zM211 1186q0 80 27 80h125q26 0 26 -80t-24 -80h-123q-31 0 -31 80zM574 1186q0 80 24 80h4l121 2 q20 0 24.5 -23.5t4.5 -81t-25 -57.5h-125q-28 0 -28 80z" />
<glyph unicode="&#x152;" horiz-adv-x="1222" d="M82 291v950q0 225 208 289q64 20 139 20t140 -18h508q23 0 44.5 -17.5t21.5 -33.5v-232h-68q-70 0 -102 60q-10 25 -43 24h-123q-10 0 -18.5 -9t-8.5 -19v-387q0 -29 29 -29h176q10 0 21.5 -7.5t11.5 -23.5v-143q0 -29 -31 -29h-178q-29 0 -29 -29v-434q0 -14 10.5 -22 t20.5 -8h131q21 -1 29 34q16 68 114 68h58v-244q0 -23 -15.5 -37t-37.5 -14h-521q-66 -18 -140.5 -18t-138 18t-109.5 57q-99 84 -99 234zM311 315q0 -80 32 -108.5t88 -28.5t88 32t32 114v893q0 80 -32 107.5t-88 27.5t-88 -28t-32 -107v-902z" />
<glyph unicode="&#x153;" horiz-adv-x="1275" d="M59 299v426q0 152 101 233q93 74 249 74q75 0 139 -24.5t112 -64.5q102 -84 102 -200v-454q0 -133 -102 -215q-101 -82 -250 -82q-245 0 -324 170q-27 59 -27 137zM301 291q0 -27 27 -61.5t82 -34.5t82.5 31.5t27.5 66.5v432q0 35 -26.5 69.5t-82.5 34.5t-83 -30.5 t-27 -65.5v-442zM522 322v385q0 151 100 242q93 85 251 85q154 0 248 -85q98 -88 98 -242v-134q0 -102 -105 -102h-350v-186q0 -41 31 -64.5t78 -23.5t77.5 24.5t30.5 42.5v25q0 47 24.5 80.5t80.5 33.5h133v-135q0 -131 -100 -204q-96 -72 -246 -72q-156 0 -251 87 q-100 91 -100 243zM764 633h211v82q0 63 -42 95q-27 21 -64 21q-61 0 -92 -57q-13 -22 -13 -59v-82z" />
<glyph unicode="&#x178;" horiz-adv-x="1013" d="M127 1444v88h352v-96q0 -66 -31 -84q-10 -6 -20 -14.5t-6 -26.5l116 -457h5q35 123 59 215q63 233 67.5 246.5t-9 22t-26.5 16.5q-20 12 -20 90v88h352v-88q0 -56 -45 -92q-31 -15 -36 -37q-2 -4 -12.5 -37t-26.5 -83q-48 -143 -87.5 -270t-99.5 -319v-391q3 -23 20 -36 q50 -38 50 -93v-86h-369v86q0 57 47 92q23 18 23 45v383l-115 352q-23 66 -43 129.5t-36.5 114.5t-27 83t-12.5 39q-4 15 -22 27q-47 33 -47 93zM270 1645q0 80 27 80h125q26 0 26 -80t-24 -80h-123q-31 0 -31 80zM633 1645q0 80 24 80h4l121 2q20 0 24.5 -23.5t4.5 -81 t-25 -57.5h-125q-28 0 -28 80z" />
<glyph unicode="&#x2c6;" horiz-adv-x="612" d="M90 1276q-6 0 0 6l213 213h6l213 -213q6 -6 0 -6l-53 -51q-2 -2 -4 0l-156 106q-4 2 -6 0l-156 -106q-4 -4 -4 0z" />
<glyph unicode="&#x2dc;" horiz-adv-x="575" d="M80 1323v66q0 27 20 45q16 10 35 19t60 9t65.5 -4t45.5 -10q47 -14 80 -14q51 0 78 13q40 19 40 -3v-78q-1 -23 -16 -34q-44 -32 -96 -32t-103 14.5t-91 14.5q-44 0 -96 -22q-23 -6 -22 16z" />
<glyph unicode="&#x2000;" horiz-adv-x="1008" />
<glyph unicode="&#x2001;" horiz-adv-x="2016" />
<glyph unicode="&#x2002;" horiz-adv-x="1008" />
<glyph unicode="&#x2003;" horiz-adv-x="2016" />
<glyph unicode="&#x2004;" horiz-adv-x="672" />
<glyph unicode="&#x2005;" horiz-adv-x="504" />
<glyph unicode="&#x2006;" horiz-adv-x="336" />
<glyph unicode="&#x2007;" horiz-adv-x="336" />
<glyph unicode="&#x2008;" horiz-adv-x="252" />
<glyph unicode="&#x2009;" horiz-adv-x="403" />
<glyph unicode="&#x200a;" horiz-adv-x="112" />
<glyph unicode="&#x2010;" horiz-adv-x="565" d="M88 530v172q0 6 6 7h377q6 0 6 -7v-172q0 -6 -6 -6h-377q-6 0 -6 6z" />
<glyph unicode="&#x2011;" horiz-adv-x="565" d="M88 530v172q0 6 6 7h377q6 0 6 -7v-172q0 -6 -6 -6h-377q-6 0 -6 6z" />
<glyph unicode="&#x2012;" horiz-adv-x="565" d="M88 530v172q0 6 6 7h377q6 0 6 -7v-172q0 -6 -6 -6h-377q-6 0 -6 6z" />
<glyph unicode="&#x2013;" horiz-adv-x="718" d="M57 526v172q0 6 6 7h592q6 0 7 -7v-172q0 -6 -7 -6h-592q-6 0 -6 6z" />
<glyph unicode="&#x2014;" horiz-adv-x="1083" d="M57 535v172q0 6 6 6h957q6 0 6 -6v-172q0 -6 -6 -7h-957q-6 0 -6 7z" />
<glyph unicode="&#x2018;" horiz-adv-x="407" d="M88 1110v209q0 68 16 95q19 34 59.5 77t48 39t21.5 -15t13.5 -18.5t-26.5 -33.5t-38 -55.5t-9 -51.5q7 -47 58 -47q88 0 88 -31v-164q0 -31 -108 -31q-47 0 -85 7.5t-38 19.5z" />
<glyph unicode="&#x2019;" horiz-adv-x="407" d="M88 1352v164q0 30 115.5 30t115.5 -26v-209q0 -67 -15 -95q-20 -37 -85 -102q-18 -16 -24.5 -13t-20.5 14t-13 18.5t26.5 33t38 55t8.5 50.5q-11 49 -60 49q-86 0 -86 31z" />
<glyph unicode="&#x201a;" horiz-adv-x="407" d="M88 33v164q0 30 115.5 30t115.5 -26v-209q0 -67 -15 -95q-20 -37 -85 -102q-18 -16 -24.5 -13t-20.5 14t-13 18.5t26.5 33t38 55t8.5 51.5q-11 48 -60 48q-86 0 -86 31z" />
<glyph unicode="&#x201c;" horiz-adv-x="692" d="M88 1110v209q0 68 16 95q19 34 59.5 77t48 39t21.5 -15t13.5 -18.5t-26.5 -33.5t-38 -55.5t-9 -51.5q7 -47 58 -47q88 0 88 -31v-164q0 -31 -108 -31q-47 0 -85 7.5t-38 19.5zM373 1110v209q0 67 15 95q20 37 60.5 78.5t48 37.5t21.5 -15t13 -18.5t-26.5 -33.5 t-37.5 -55.5t-9 -51.5q7 -47 58 -47q88 0 88 -31v-164q0 -31 -108 -31q-47 0 -85 7.5t-38 19.5z" />
<glyph unicode="&#x201d;" horiz-adv-x="692" d="M88 1366v164q0 31 107 31q47 0 85.5 -7.5t38.5 -19.5v-209q0 -67 -15 -95q-20 -37 -85 -102q-18 -16 -24.5 -13t-20.5 14t-13 18.5t26.5 33.5t38 55.5t8.5 51.5q-10 47 -60 47q-86 0 -86 31zM373 1366v164q0 31 106 31q47 0 86 -7.5t39 -19.5v-209q0 -68 -16 -95 q-21 -39 -84 -102q-18 -16 -24.5 -13t-20.5 14t-13.5 18.5t26.5 33.5t38 55.5t8 51.5q-9 47 -59 47q-86 0 -86 31z" />
<glyph unicode="&#x201e;" horiz-adv-x="632" d="M57 33v164q0 30 116 30t116 -26v-209q0 -68 -15 -95q-21 -37 -86 -102q-18 -16 -24 -13q-36 18 -34 32q1 8 27 33.5t38 55t8 51.5q-9 48 -60 48q-86 0 -86 31zM344 33v164q0 30 115.5 30t115.5 -26v-209q0 -67 -15 -95q-20 -37 -85 -102q-18 -16 -24.5 -13t-20.5 14 t-13 18.5t26.5 33t38 55t8.5 51.5q-11 48 -60 48q-86 0 -86 31z" />
<glyph unicode="&#x2022;" horiz-adv-x="423" d="M57 711v231q0 19 39 24q70 9 106 9t62.5 -2t49.5 -6q53 -9 53 -21v-231q0 -35 -154 -35q-88 0 -122 11t-34 20z" />
<glyph unicode="&#x2026;" horiz-adv-x="1073" d="M88 0v150q0 32 109.5 32t109.5 -28v-150q0 -35 -110 -35q-109 0 -109 31zM424 0v150q0 32 109.5 32t109.5 -28v-150q0 -35 -111 -35q-108 0 -108 31zM766 0v150q0 32 109.5 32t109.5 -28v-150q0 -35 -111 -35q-108 0 -108 31z" />
<glyph unicode="&#x202f;" horiz-adv-x="403" />
<glyph unicode="&#x2039;" horiz-adv-x="634" d="M57 612q102 102 203.5 213t218.5 228q4 4 8 0l88 -92q4 -4 0 -9l-294 -336q-8 -4 0 -8l294 -338q2 -2 0 -8l-86 -86q-4 -4 -8 0q-80 80 -134 135.5t-93 95t-64.5 66.5t-45.5 49q-29 32 -87 90z" />
<glyph unicode="&#x203a;" horiz-adv-x="731" d="M100 295q-4 4 0 8l267 307q4 4 0 8l-267 310q-2 2 0 8l103 102q4 4 8 0l418 -420q2 -2 4 -2v-4l-4 -2l-418 -417q-4 -4 -8 0z" />
<glyph unicode="&#x205f;" horiz-adv-x="504" />
<glyph unicode="&#x20ac;" horiz-adv-x="1009" d="M88 614v105h199v96h-199v103h199v303q0 158 83 243.5t235.5 85.5t234.5 -86t82 -243v-172h-115q-51 0 -86 30.5t-35 81.5v35q0 82 -15.5 120t-71.5 38t-69.5 -38t-13.5 -120v-278h174v-103h-174v-96h174v-105h-174v-278q0 -80 16.5 -118t72.5 -38t71.5 34t15.5 116v41 q0 47 28 80.5t83 33.5h119v-174q0 -158 -82 -242.5t-235 -84.5t-235.5 85t-82.5 242v303h-199z" />
<glyph unicode="&#x2122;" horiz-adv-x="1013" d="M57 1145v78q0 47 45 47h289q37 0 37 -51v-74h-47q-29 0 -29 29q0 12 -8 12h-39q-14 0 -14 -15v-460q3 -13 10 -17q21 -21 21 -39v-39h-156v39q0 24 12 32.5t14.5 10.5t2.5 13v463q0 12 -15 12h-33q-12 0 -12 -12q0 -29 -37 -29h-41zM465 616v39q0 19 13 30t16 26v475 q-8 0 -18.5 8t-10.5 37v39h106q12 0 19 -13q10 -27 29.5 -72.5t38 -89.5t34.5 -77l15 -33q0 -8 8 0q0 4 7 17.5t22 43.5q43 92 94 211q3 13 30 13h88v-39q0 -27 -12 -36t-18 -9v-475q0 -13 8 -17q22 -22 22 -39v-39h-159v39q0 17 13 29t16 14t3 13v331h-2q-2 0 -4 -2 q-23 -61 -41 -106t-32.5 -83t-19.5 -46t-21.5 -8t-20.5 8q-5 9 -37 90.5t-55 138.5q-6 0 -6 -2v-319q0 -14 12 -19q19 -19 19 -39v-39h-156z" />
<glyph unicode="&#xe000;" horiz-adv-x="1024" d="M0 0v1024h1024v-1024h-1024z" />
</font>
</defs>
</svg>
